<svg xmlns="http://www.w3.org/2000/svg" width="16" height="16" fill="none" viewBox="0 0 16 16"><path fill="#9ca3af" fill-rule="evenodd" d="M5.135 2.024a.89.89 0 0 0-.849.6L1.26 11.926h8.184a.89.89 0 0 0 .849-.6l2.666-8.194c.18-.55-.249-1.109-.848-1.109zm5.886 4.952a.523.523 0 0 0-.534-.513H4.444a.523.523 0 0 0-.533.513c0 .282.239.512.533.512h6.045c.294 0 .533-.23.533-.512m.71-2.39a.523.523 0 0 0-.532-.513H5.154a.523.523 0 0 0-.533.512c0 .283.239.513.533.513H11.2c.294 0 .533-.23.533-.513" clip-rule="evenodd"/><path fill="#9ca3af" fill-rule="evenodd" d="M12.11 1c1.319 0 2.26 1.229 1.866 2.438l-2.666 8.195c-.255.784-1.012 1.318-1.867 1.318H1.077c.013.29.042.516.122.688.05.11.114.18.203.23.096.054.262.107.554.107h8.91a.89.89 0 0 0 .848-.6l3.243-9.968a.54.54 0 0 1 .669-.336.51.51 0 0 1 .35.642l-3.244 9.968C12.477 14.466 11.72 15 10.865 15h-8.91c-.42 0-.786-.076-1.09-.246a1.5 1.5 0 0 1-.641-.698C-.001 13.57 0 12.964 0 12.495v-.134L3.268 2.318C3.523 1.534 4.28 1 5.135 1zM5.135 2.024a.89.89 0 0 0-.849.6L1.26 11.926h8.184a.89.89 0 0 0 .849-.6l2.666-8.194c.18-.55-.249-1.109-.848-1.109z" clip-rule="evenodd"/></svg>