<svg width="17" height="15" viewBox="0 0 17 15" fill="none" xmlns="http://www.w3.org/2000/svg">
<path d="M1.34961 11.2539V12.7783H2.30273V13.1592H13.7305V12.7783H14.6826V11.2539H16.0332V14.1279H0V11.2539H1.34961Z" fill="#9CA3AF"/>
<path d="M5.60645 11.2539C5.67026 11.3547 5.75574 11.444 5.86621 11.5078C6.46429 11.8535 7.13754 12.044 7.82617 12.0693V12.7783H2.68359V11.2539H5.60645Z" fill="#9CA3AF"/>
<path d="M13.3506 12.7783H8.20703V12.0674C8.8691 12.0319 9.51535 11.8431 10.0918 11.5107C10.2003 11.4481 10.2872 11.3582 10.3525 11.2539H13.3506V12.7783Z" fill="#9CA3AF"/>
<path d="M16.0332 9.67188H14.6826V8.99805H16.0332V9.67188Z" fill="#9CA3AF"/>
<path d="M13.3506 9.67188H9.91113L9.52246 8.99805H13.3506V9.67188Z" fill="#9CA3AF"/>
<path d="M1.34961 8.99805V9.67188H0V8.99805H1.34961Z" fill="#9CA3AF"/>
<path d="M6.43652 8.99805L6.04688 9.67188H2.68359V8.99805H6.43652Z" fill="#9CA3AF"/>
<path d="M16.0332 7.41504H14.6826V6.74121H16.0332V7.41504Z" fill="#9CA3AF"/>
<path d="M13.3506 7.41504H12.1816C12.1581 7.18711 12.1174 6.96175 12.0576 6.74121H13.3506V7.41504Z" fill="#9CA3AF"/>
<path d="M1.34961 6.74121V7.41504H0V6.74121H1.34961Z" fill="#9CA3AF"/>
<path d="M3.90332 6.74121C3.8435 6.96175 3.80281 7.18711 3.7793 7.41504H2.68359V6.74121H3.90332Z" fill="#9CA3AF"/>
<path d="M8.0166 0C8.96201 3.95858e-05 9.90456 0.0751056 10.792 0.224609C11.677 0.373788 12.5109 0.597282 13.2393 0.893555C13.9575 1.18577 14.6195 1.56799 15.1211 2.06055C15.6289 2.55935 16.0332 3.23869 16.0332 4.06152V5.15918H14.6826V4.06152C14.6826 3.75014 14.5511 3.44106 14.2939 3.14844L14.1758 3.02344C13.8826 2.73556 13.4694 2.47066 12.9561 2.24023L12.7305 2.14355C12.1115 1.89178 11.3761 1.69197 10.5674 1.55566C9.96107 1.45353 9.32165 1.38844 8.6709 1.3623L8.0166 1.34961C7.14126 1.34961 6.27354 1.41945 5.46484 1.55566C4.65619 1.69195 3.92068 1.89182 3.30176 2.14355C2.68313 2.39521 2.19237 2.69469 1.85742 3.02344L1.73926 3.14844C1.48183 3.44121 1.34963 3.74995 1.34961 4.06152V5.15918H0V4.06152C1.84769e-05 3.2386 0.403203 2.55937 0.911133 2.06055C1.41289 1.56788 2.07549 1.18579 2.79395 0.893555C3.52226 0.597352 4.35626 0.373744 5.24121 0.224609C6.12863 0.0751607 7.07125 0 8.0166 0Z" fill="#9CA3AF"/>
<path d="M13.3506 5.15918H11.2363C10.9166 4.77236 10.5314 4.44217 10.0938 4.18945C9.75218 3.99239 9.32157 4.09018 9.0957 4.40332L9.05371 4.46875L8.6543 5.15918H8.20703V3.63574H13.3506V5.15918Z" fill="#9CA3AF"/>
<path d="M7.82617 5.15918H7.30762L6.90918 4.46875C6.80815 4.29375 6.64148 4.16559 6.44629 4.11328C6.29994 4.07407 6.14632 4.08009 6.00488 4.12793L5.86816 4.18945C5.43061 4.44207 5.04475 4.77211 4.72461 5.15918H2.68359V3.63574H7.82617V5.15918Z" fill="#9CA3AF"/>
<path d="M9.71094 10.8506C9.18421 11.1543 8.58651 11.3138 7.97852 11.3135C7.37059 11.3131 6.77339 11.1529 6.24707 10.8486L7.29199 9.04004C7.49441 9.15709 7.72886 9.22556 7.97949 9.22559C8.23005 9.22555 8.46462 9.15703 8.66699 9.04004L9.71094 10.8506ZM7.97852 7.22559C8.32185 7.22565 8.60059 7.50431 8.60059 7.84766C8.60058 8.191 8.32185 8.46966 7.97852 8.46973C7.63513 8.46973 7.35645 8.19104 7.35645 7.84766C7.35645 7.50427 7.63513 7.22559 7.97852 7.22559ZM7.29199 6.65625C6.88029 6.89422 6.60259 7.33892 6.60254 7.84863L4.5166 7.84961C4.51662 7.24158 4.67645 6.64376 4.98047 6.11719C5.2845 5.59075 5.72254 5.15357 6.24902 4.84961L7.29199 6.65625ZM9.71289 4.84961C10.2393 5.15357 10.6765 5.59082 10.9805 6.11719C11.2845 6.64376 11.4443 7.24158 11.4443 7.84961H9.35645C9.3564 7.34032 9.07911 6.89534 8.66797 6.65723L9.71289 4.84961Z" fill="#9CA3AF"/>
<path d="M5.58691 10.4678C5.51318 10.5956 5.48359 10.7357 5.48828 10.873H0.0166016V10.0527H5.82715L5.58691 10.4678Z" fill="#9CA3AF"/>
<path d="M16.0166 10.873H10.4697C10.4741 10.7329 10.4422 10.5931 10.3711 10.4697L10.1309 10.0527H16.0166V10.873Z" fill="#9CA3AF"/>
<path d="M3.75488 7.84961C3.75488 8.05167 3.83466 8.24579 3.97754 8.38867C4.12042 8.53155 4.31453 8.61133 4.5166 8.61133C10.049 8.61133 2.0166 8.61719 0.0166016 8.61719V7.79688H3.75684C3.75662 7.81445 3.75488 7.83202 3.75488 7.84961Z" fill="#9CA3AF"/>
<path d="M16.0166 8.61719C14.4108 8.61719 6.06127 8.61133 11.4443 8.61133C11.6464 8.61133 11.8405 8.53155 11.9834 8.38867C12.1263 8.24579 12.2061 8.05167 12.2061 7.84961C12.2061 7.83202 12.2043 7.81445 12.2041 7.79688H16.0166V8.61719Z" fill="#9CA3AF"/>
<path d="M4.32031 5.73633C4.20478 5.93646 4.10809 6.14565 4.02734 6.36035H0.0166016V5.54004H4.44238C4.4003 5.60447 4.35892 5.66948 4.32031 5.73633Z" fill="#9CA3AF"/>
<path d="M16.0166 6.36035H11.9336C11.8528 6.14565 11.7562 5.93646 11.6406 5.73633C11.602 5.66948 11.5606 5.60448 11.5186 5.54004H16.0166V6.36035Z" fill="#9CA3AF"/>
</svg>
