<svg xmlns="http://www.w3.org/2000/svg" width="16" height="16" fill="none" viewBox="0 0 16 16"><g clip-path="url(#a)"><path fill="#9ca3af" d="M8 4.444c-3.164 0-4.756 3.832-2.516 6.072s6.072.648 6.072-2.516A3.555 3.555 0 0 0 8 4.444m-6.222 6.223H0v3.555C0 15.2.8 16 1.778 16h3.555v-1.778H1.778m0-12.444h3.555V0H1.778C.8 0 0 .8 0 1.778v3.555h1.778M14.222 0h-3.555v1.778h3.555v3.555H16V1.778C16 .8 15.2 0 14.222 0m0 14.222h-3.555V16h3.555C15.2 16 16 15.2 16 14.222v-3.555h-1.778"/></g><defs><clipPath id="a"><path fill="#fff" d="M0 0h16v16H0z"/></clipPath></defs></svg>