<svg xmlns="http://www.w3.org/2000/svg" width="16" height="16" fill="none" viewBox="0 0 16 16"><path fill="#9ca3af" d="m2.634 13.545-.49.866.608.636 1.216.317-1.216-.953.453-.617 2.389.278.57 1.192L7.222 16H0l1.23-2.066.923-.723zm12.136.389L16 16H8.78l1.055-.736.571-1.192 2.389-.277.454.616-1.217.953 1.217-.318.608-.635-.49-.866.48-.334z"/><path fill="#9ca3af" d="m14.763 10.209-.425 2.77-.471-.368-1.03.717-2.663.31-.164.019-.074.154-.573 1.196-.677.471-.686.135-.687-.135-.676-.471-.573-1.196-.074-.154-.164-.02-2.664-.31-1.029-.716-.471.368-.425-2.77L8 8.407zM8.461.6h2.613l-.615.601H8.615l.153.6h1.076l-.614.601h-.308l.308 1.201H6.77l.308-1.201H6.77l-.614-.6h1.076l.153-.601H5.541l-.615-.6H7.54L7.693 0h.614z"/><path fill="#9ca3af" fill-rule="evenodd" d="M4.926 3.903h6.148l.615-.6h2.459v2.101l-.615.601h-1.23l.615 3.002L8 7.807l-4.918 1.2.615-3.002h-1.23l-.615-.6V3.302h2.46zm0 3.903h-.615v-.6h.615zm6.763 0h-.615v-.6h.615zm-5.533-.6H5.54v-.6h.615zm4.303 0h-.615v-.6h.615zm-3.074-.6H6.77v-.601h.615zm1.845 0h-.615v-.601h.615zM4.926 5.403h-.615v-.6h.615zm1.23 0H5.54v-.6h.615zm1.23 0H6.77v-.6h.615zm1.844 0h-.615v-.6h.615zm1.23 0h-.616v-.6h.615zm1.229 0h-.615v-.6h.615zm-7.992-.6h-.615v-.6h.615zm9.221 0h-.614v-.6h.614z" clip-rule="evenodd"/></svg>