<svg xmlns="http://www.w3.org/2000/svg" width="16" height="16" fill="none" viewBox="0 0 16 16"><g clip-path="url(#a)"><path fill="#9ca3af" d="M13.474 10.948H11.79V9.263h1.684m0 5.053H11.79v-1.684h1.684M8.42 4.21H6.737V2.526h1.684m0 5.053H6.737V5.895h1.684m0 5.053H6.737V9.263h1.684m0 5.053H6.737v-1.684h1.684M3.37 7.579H1.684V5.895H3.37m0 5.053H1.684V9.263H3.37m0 5.053H1.684v-1.684H3.37m6.736-5.053V2.526L7.58 0 5.053 2.526v1.685H0V16h15.158V7.578z"/></g><defs><clipPath id="a"><path fill="#fff" d="M0 0h16v16H0z"/></clipPath></defs></svg>