<svg xmlns="http://www.w3.org/2000/svg" width="16" height="16" fill="none" viewBox="0 0 16 16"><g clip-path="url(#a)"><path fill="#9ca3af" d="M3.91 3.637h8.726v2.88L8.273 5.09 3.909 6.517M2.411 13.09h.044c1.163 0 2.181-.64 2.909-1.454.727.814 1.745 1.454 2.909 1.454s2.182-.64 2.909-1.454c.727.814 1.745 1.454 2.909 1.454h.036l1.382-4.865a.8.8 0 0 0-.043-.56.75.75 0 0 0-.437-.364l-.938-.305v-3.36c0-.808-.655-1.455-1.455-1.455h-2.181V0H6.09v2.182H3.909a1.455 1.455 0 0 0-1.454 1.455v3.36l-.939.305a.75.75 0 0 0-.436.364.8.8 0 0 0-.044.56m13.055 6.32c-1.01 0-2.022-.342-2.91-.968-1.774 1.244-4.043 1.244-5.817 0-.888.626-1.898.968-2.91.968H1V16h1.455a6.36 6.36 0 0 0 2.909-.727c1.818.945 4 .945 5.818 0A6.34 6.34 0 0 0 14.09 16h1.455v-1.454z"/></g><defs><clipPath id="a"><path fill="#fff" d="M0 0h16v16H0z"/></clipPath></defs></svg>