<svg width="28" height="28" viewBox="0 0 28 28" fill="none" xmlns="http://www.w3.org/2000/svg">
<path d="M16.3337 25.6663H11.667V24.4997H16.3337V25.6663ZM15.167 11.6663V8.16634H12.8337V11.6663L11.667 13.4163V23.333H16.3337V13.4163L15.167 11.6663ZM14.0003 2.33301C14.0003 2.33301 12.8337 3.49967 12.8337 5.83301V6.99967H15.167V5.83301C15.167 5.83301 15.167 3.49967 14.0003 2.33301ZM9.33366 25.6663H4.66699V24.4997H9.33366V25.6663ZM8.16699 11.6663V8.16634H5.83366V11.6663L4.66699 13.4163V23.333H9.33366V13.4163L8.16699 11.6663ZM7.00033 2.33301C7.00033 2.33301 5.83366 3.49967 5.83366 5.83301V6.99967H8.16699V5.83301C8.16699 5.83301 8.16699 3.49967 7.00033 2.33301ZM23.3337 25.6663H18.667V24.4997H23.3337V25.6663ZM22.167 11.6663V8.16634H19.8337V11.6663L18.667 13.4163V23.333H23.3337V13.4163L22.167 11.6663ZM21.0003 2.33301C21.0003 2.33301 19.8337 3.49967 19.8337 5.83301V6.99967H22.167V5.83301C22.167 5.83301 22.167 3.49967 21.0003 2.33301Z" fill="black"/>
</svg>
