<svg width="28" height="28" viewBox="0 0 28 28" fill="none" xmlns="http://www.w3.org/2000/svg">
<path d="M22.167 9.33366L17.5003 14.0003H21.0003C21.0003 15.8568 20.2628 17.6373 18.9501 18.9501C17.6373 20.2628 15.8568 21.0003 14.0003 21.0003C12.8337 21.0003 11.702 20.7087 10.7337 20.1837L9.03032 21.887C10.4653 22.797 12.1687 23.3337 14.0003 23.3337C16.4757 23.3337 18.8496 22.3503 20.6 20.6C22.3503 18.8496 23.3337 16.4757 23.3337 14.0003H26.8337M7.00033 14.0003C7.00033 12.1438 7.73782 10.3633 9.05058 9.05058C10.3633 7.73782 12.1438 7.00033 14.0003 7.00033C15.167 7.00033 16.2987 7.29199 17.267 7.81699L18.9703 6.11366C17.5353 5.20366 15.832 4.66699 14.0003 4.66699C11.525 4.66699 9.151 5.65032 7.40066 7.40066C5.65032 9.151 4.66699 11.525 4.66699 14.0003H1.16699L5.83366 18.667L10.5003 14.0003" fill="black"/>
</svg>
