<svg width="28" height="28" viewBox="0 0 28 28" fill="none" xmlns="http://www.w3.org/2000/svg">
<path d="M13.8 2C10.9357 2 8.18864 3.13785 6.16325 5.16325C4.13785 7.18864 3 9.93566 3 12.8C3 16.436 4.836 19.784 7.8 21.764V26H10.2V22.4H12.6V26H15V22.4H17.4V26H19.8V21.752C22.764 19.772 24.6 16.4 24.6 12.8C24.6 9.93566 23.4621 7.18864 21.4368 5.16325C19.4114 3.13785 16.6643 2 13.8 2ZM9 12.8C9.63652 12.8 10.247 13.0529 10.6971 13.5029C11.1471 13.953 11.4 14.5635 11.4 15.2C11.4 15.8365 11.1471 16.447 10.6971 16.8971C10.247 17.3471 9.63652 17.6 9 17.6C8.36348 17.6 7.75303 17.3471 7.30294 16.8971C6.85286 16.447 6.6 15.8365 6.6 15.2C6.6 14.5635 6.85286 13.953 7.30294 13.5029C7.75303 13.0529 8.36348 12.8 9 12.8ZM18.6 12.8C19.2365 12.8 19.847 13.0529 20.2971 13.5029C20.7471 13.953 21 14.5635 21 15.2C21 15.8365 20.7471 16.447 20.2971 16.8971C19.847 17.3471 19.2365 17.6 18.6 17.6C17.9635 17.6 17.353 17.3471 16.9029 16.8971C16.4529 16.447 16.2 15.8365 16.2 15.2C16.2 14.5635 16.4529 13.953 16.9029 13.5029C17.353 13.0529 17.9635 12.8 18.6 12.8ZM13.8 16.4L15.6 20H12L13.8 16.4Z" fill="black"/>
</svg>
