<svg width="28" height="28" viewBox="0 0 28 28" fill="none" xmlns="http://www.w3.org/2000/svg">
<path d="M15.1666 2.36816V2.3915V4.72483C20.2883 5.35483 23.9166 10.0098 23.2866 15.1315C22.7499 19.3782 19.4133 22.7498 15.1666 23.2515V25.5848C21.5833 24.9432 26.2499 19.2498 25.6083 12.8332C25.0833 7.2915 20.6849 2.9165 15.1666 2.36816ZM12.8333 2.40316C10.5583 2.62483 8.38827 3.49983 6.61493 4.96983L8.28327 6.6965C9.58993 5.6465 11.1649 4.96983 12.8333 4.7365V2.40316ZM4.96994 6.61483C3.49994 8.38816 2.62493 10.5465 2.3916 12.8332H4.72494C4.9466 11.1765 5.59993 9.6015 6.63827 8.28316L4.96994 6.61483ZM2.40327 15.1665C2.6366 17.4532 3.53493 19.6115 4.9816 21.3848L6.63827 19.7165C5.6116 18.3982 4.9466 16.8232 4.7366 15.1665H2.40327ZM8.28327 21.4315L6.61493 23.0298C8.3766 24.4998 10.5466 25.4215 12.8333 25.6665V23.3332C11.1766 23.1232 9.6016 22.4582 8.28327 21.4315ZM19.6233 17.7215L14.8283 12.9265C15.3066 11.7132 15.0383 10.2898 14.0349 9.29816C12.9849 8.2365 11.4099 8.0265 10.1383 8.60983L12.4016 10.8732L10.8266 12.4598L8.50493 10.1848C7.87493 11.4565 8.1666 13.0315 9.19327 14.0932C10.1966 15.0965 11.6199 15.3532 12.8333 14.8865L17.6283 19.6698C17.8383 19.8915 18.1533 19.8915 18.3633 19.6698L19.5766 18.4682C19.8333 18.2582 19.8333 17.8848 19.6233 17.7215Z" fill="black"/>
</svg>
