<svg width="28" height="28" viewBox="0 0 28 28" fill="none" xmlns="http://www.w3.org/2000/svg">
<path d="M6.99967 22.1667H9.33301V24.5H6.99967V22.1667ZM13.9997 3.5L2.33301 9.33333V24.5H4.66634V15.1667H23.333V24.5H25.6663V9.33333L13.9997 3.5ZM9.33301 12.8333H4.66634V10.5H9.33301V12.8333ZM16.333 12.8333H11.6663V10.5H16.333V12.8333ZM23.333 12.8333H18.6663V10.5H23.333V12.8333ZM6.99967 17.5H9.33301V19.8333H6.99967V17.5ZM11.6663 17.5H13.9997V19.8333H11.6663V17.5ZM11.6663 22.1667H13.9997V24.5H11.6663V22.1667ZM16.333 22.1667H18.6663V24.5H16.333V22.1667Z" fill="black"/>
</svg>
