<svg width="28" height="28" viewBox="0 0 28 28" fill="none" xmlns="http://www.w3.org/2000/svg">
<path d="M18.6669 24.5H9.33356C9.02414 24.5 8.72739 24.3771 8.5086 24.1583C8.28981 23.9395 8.16689 23.6428 8.16689 23.3333V14.0817L6.65022 15.2483C6.19522 15.7033 5.46022 15.7033 5.00522 15.2483L1.70355 12.005C1.24855 11.55 1.24855 10.815 1.70355 10.36L8.56356 3.5H10.5002C10.5002 4.78333 12.0636 5.83333 14.0002 5.83333C15.9369 5.83333 17.5002 4.78333 17.5002 3.5H19.4369L26.2969 10.36C26.7519 10.815 26.7519 11.55 26.2969 12.005L22.9952 15.3067C22.5402 15.75 21.8052 15.75 21.3502 15.3067L19.8336 14.14V23.3333C19.8336 23.6428 19.7106 23.9395 19.4918 24.1583C19.2731 24.3771 18.9763 24.5 18.6669 24.5Z" fill="black"/>
</svg>
