<svg width="28" height="28" viewBox="0 0 28 28" fill="none" xmlns="http://www.w3.org/2000/svg">
<path d="M7.00391 17.4281L6.94043 17.5374L10.8975 24.3919H7.99902C7.42597 23.4019 4.94255 19.1052 4.04199 17.5365C4.94449 15.9678 7.4531 11.6261 8 10.682H10.8975C9.61331 12.9065 8.28255 15.2097 7.00391 17.4281ZM13.4697 21.7738L13.5332 21.8831H21.4482L19.999 24.3919C18.8555 24.3932 13.8948 24.3963 12.085 24.3919C11.1776 22.8259 8.66968 18.4823 8.12598 17.5374L9.5752 15.0287C10.8596 17.2531 12.1879 19.5573 13.4697 21.7738ZM25.999 14.0003C25.4292 14.9898 22.9499 19.2894 22.041 20.8548C20.2314 20.8576 15.2178 20.8564 14.126 20.8548L12.6768 18.3451H20.5918L24.5498 11.4906L25.999 14.0003ZM23.9561 10.4632C23.054 12.0312 20.5494 16.3709 20.001 17.3177H17.1025C18.3865 15.0935 19.7166 12.7907 20.9951 10.5726L21.0586 10.4632L17.1025 3.60873H20C20.5724 4.59758 23.0547 8.89323 23.9561 10.4632ZM15.3223 9.65365C12.7536 9.65381 10.0938 9.65283 7.5332 9.65463H7.40723L3.44922 16.5081L2 13.9994C2.57008 13.0096 5.04812 8.71028 5.95703 7.14486C7.76497 7.14202 12.7794 7.14337 13.873 7.14486L15.3223 9.65365ZM19.873 10.4632L18.4238 12.973C17.1394 10.7486 15.8112 8.44433 14.5293 6.22787L14.4658 6.1185L6.55078 6.11752L8 3.60775C9.14207 3.60649 14.1032 3.60332 15.9141 3.60775C16.8204 5.17211 19.3281 9.51634 19.873 10.4632Z" fill="black"/>
</svg>
