<svg width="28" height="28" viewBox="0 0 28 28" fill="none" xmlns="http://www.w3.org/2000/svg">
<path d="M25 13H20C19.7348 13 19.4804 13.1054 19.2929 13.2929C19.1054 13.4804 19 13.7348 19 14V23C19 23.2652 19.1054 23.5196 19.2929 23.7071C19.4804 23.8946 19.7348 24 20 24H25C25.2652 24 25.5196 23.8946 25.7071 23.7071C25.8946 23.5196 26 23.2652 26 23V14C26 13.7348 25.8946 13.4804 25.7071 13.2929C25.5196 13.1054 25.2652 13 25 13ZM25 22H20V15H25V22ZM22 4H4C2.89 4 2 4.89 2 6V18C2 18.5304 2.21071 19.0391 2.58579 19.4142C2.96086 19.7893 3.46957 20 4 20H11V22H9V24H17V22H15V20H17V18H4V6H22V11H24V6C24 4.89 23.1 4 22 4Z" fill="black"/>
</svg>
