<svg width="28" height="28" viewBox="0 0 28 28" fill="none" xmlns="http://www.w3.org/2000/svg">
<path d="M10.0625 19.32H8.9375V18.2H10.0625V19.32Z" fill="black"/>
<path d="M19.0625 19.32H17.9375V18.2H19.0625V19.32Z" fill="black"/>
<path d="M11.9478 16.9859H11.9664C12.0116 16.9335 12.0778 16.8554 12.1642 16.7508C12.2506 16.646 12.314 16.5687 12.3553 16.52H12.5981L12.1301 17.0778C12.1502 17.1015 12.2197 17.1858 12.3389 17.3294C12.4592 17.4729 12.5464 17.5763 12.6003 17.64H12.3575L11.9686 17.1719H11.9478V17.64H11.75V16.52H11.9478V16.9859Z" fill="black"/>
<path fill-rule="evenodd" clip-rule="evenodd" d="M13.6506 17.64H13.4397L13.3573 17.4027H12.9299L12.8475 17.64H12.6366L13.0299 16.52H13.2595L13.6506 17.64ZM12.9926 17.2145H13.2947L13.1442 16.7727L12.9926 17.2145Z" fill="black"/>
<path fill-rule="evenodd" clip-rule="evenodd" d="M14.3252 16.52C14.3754 16.52 14.4203 16.5341 14.4592 16.5616C14.4717 16.5704 14.4897 16.5863 14.512 16.6097C14.5357 16.6333 14.5515 16.6519 14.5603 16.6644C14.5828 16.698 14.5943 16.7358 14.5944 16.7781V16.9433C14.5944 16.9856 14.5827 17.0234 14.5603 17.057C14.5515 17.0695 14.5356 17.0871 14.5131 17.1095C14.4907 17.1306 14.473 17.1466 14.4592 17.1566C14.4203 17.184 14.3754 17.1981 14.3252 17.1981H13.9945V17.64H13.7968V16.52H14.3252ZM13.9945 17.0111H14.3252C14.334 17.0111 14.3464 17.004 14.3615 16.9903C14.3764 16.9766 14.3869 16.9624 14.3944 16.9488C14.3957 16.9463 14.3966 16.9436 14.3966 16.9411V16.7803C14.3966 16.7741 14.3957 16.7697 14.3944 16.7672C14.3733 16.7301 14.3537 16.7098 14.3351 16.707H13.9945V17.0111Z" fill="black"/>
<path fill-rule="evenodd" clip-rule="evenodd" d="M15.3359 16.52C15.3861 16.52 15.4311 16.5341 15.47 16.5616C15.4825 16.5704 15.5004 16.5862 15.5227 16.6097C15.5465 16.6334 15.5623 16.6519 15.571 16.6644C15.5935 16.698 15.605 16.7358 15.6051 16.7781V16.9433C15.6051 16.9856 15.5935 17.0234 15.571 17.057C15.5623 17.0695 15.5464 17.0871 15.5238 17.1095C15.5014 17.1306 15.4837 17.1466 15.47 17.1566C15.4311 17.184 15.3861 17.1981 15.3359 17.1981H15.0052V17.64H14.8075V16.52H15.3359ZM15.0052 17.0111H15.3359C15.3447 17.0111 15.3571 17.004 15.3722 16.9903C15.3872 16.9766 15.3976 16.9624 15.4052 16.9488C15.4064 16.9463 15.4073 16.9436 15.4073 16.9411V16.7803C15.4073 16.7741 15.4064 16.7697 15.4052 16.7672C15.384 16.7301 15.3645 16.7097 15.3458 16.707H15.0052V17.0111Z" fill="black"/>
<path fill-rule="evenodd" clip-rule="evenodd" d="M16.6082 17.64H16.3972L16.3148 17.4027H15.8875L15.8051 17.64H15.5941L15.9874 16.52H16.217L16.6082 17.64ZM15.9501 17.2145H16.2522L16.1017 16.7727L15.9501 17.2145Z" fill="black"/>
<path fill-rule="evenodd" clip-rule="evenodd" d="M10.625 7.56H17.375V7H20.1875L23 9.24V17.08L21.875 18.2V19.88L19.625 21H8.375L6.125 19.88V18.2L5 17.08V9.24L7.8125 7H10.625V7.56ZM8.375 19.88H10.625V17.08H8.375V19.88ZM10.9062 19.32L11.4688 19.88H12.7344V19.32H11.75L11.1875 19.04V18.76H10.9062V19.32ZM13.0156 19.88H14.9844V19.32H13.0156V19.88ZM16.8125 19.04L16.25 19.32H15.2656V19.88H16.5312L17.0938 19.32V18.76H16.8125V19.04ZM17.375 19.88H19.625V17.08H17.375V19.88ZM11.1875 18.2H16.8125V15.96H11.1875V18.2ZM7.25 8.12V14.84L7.8125 15.4V7.56L7.25 8.12ZM8.375 15.4L10.625 14.84V8.12L8.375 7.56V15.4ZM17.375 8.12V14.84L19.625 15.4V7.56L17.375 8.12ZM20.1875 15.4L20.75 14.84V8.12L20.1875 7.56V15.4Z" fill="black"/>
</svg>
