<svg width="28" height="28" viewBox="0 0 28 28" fill="none" xmlns="http://www.w3.org/2000/svg">
<path d="M9.85714 16.0888C9.85714 16.0888 8.25869 18.2432 6.79923 19.7027C6.17375 20.3282 5.54826 20.7452 5.06178 21.0927C4.50579 21.4402 4.3668 22.2046 4.85328 22.6911C5.13127 22.9691 5.61776 23.1081 5.96525 22.8996C6.52124 22.6216 7.35521 22.0656 8.25869 21.2317C9.71815 19.7722 11.3166 17.6178 11.3166 17.6178L9.85714 16.0888ZM7.9112 14.1429C7.9112 14.1429 5.75676 15.7413 4.2973 17.2008C3.67181 17.8263 3.25483 18.4517 2.90734 18.9382C2.55985 19.4942 1.79537 19.6332 1.30888 19.1467C1.03089 18.8687 0.891892 18.3822 1.10039 18.0347C1.37838 17.4788 1.93436 16.6448 2.76834 15.7413C4.2278 14.2819 6.38224 12.6834 6.38224 12.6834L7.9112 14.1429ZM9.16216 11.4324L11.1081 9.48649L13.5405 9L13.888 9.34749L12.2896 10.9459C11.9421 10.8764 11.5946 10.9459 11.3166 11.2239C10.8996 11.6409 10.8996 12.2664 11.3166 12.6834C11.7336 13.1004 12.3591 13.1004 12.7761 12.6834C13.0541 12.4054 13.1236 11.9884 13.0541 11.6409L14.6525 10.112L15 10.4595L14.5135 12.8919L12.5676 14.8378L11.5946 16.7838L10.2741 15.4633L10.9691 14.2124L9.85714 13.1004L8.53668 13.7259L7.21622 12.4054L9.16216 11.4324Z" fill="black"/>
<path d="M11.9473 1.62891C17.6461 1.62891 22.2664 6.24844 22.2666 11.9473C22.2666 14.3022 21.4753 16.4714 20.1475 18.208L25.9697 24.0303C26.5053 24.5658 26.5053 25.4342 25.9697 25.9697C25.4342 26.5053 24.5658 26.5053 24.0303 25.9697L18.208 20.1475C16.4714 21.4753 14.3022 22.2666 11.9473 22.2666C11.3461 22.2666 10.7575 22.212 10.1846 22.1133C10.8138 21.4394 11.4211 20.7166 11.8916 20.1338C12.0753 19.9062 12.2384 19.6934 12.3809 19.5107C16.3635 19.286 19.5244 15.986 19.5244 11.9473C19.5242 7.76313 16.1315 4.37109 11.9473 4.37109C7.844 4.37133 4.50459 7.63372 4.37695 11.7061C4.2221 11.8276 4.04864 11.9611 3.86621 12.1084C3.26198 12.5962 2.50815 13.2319 1.81348 13.8857C1.69408 13.2577 1.62891 12.61 1.62891 11.9473C1.62914 6.24859 6.24859 1.62914 11.9473 1.62891Z" fill="black"/>
</svg>
