<svg width="28" height="28" viewBox="0 0 28 28" fill="none" xmlns="http://www.w3.org/2000/svg">
<path d="M2 21.2V26H6.8V22.4H10.4V18.8H14L16.712 16.088C17.372 16.292 18.068 16.4 18.8 16.4C20.7096 16.4 22.5409 15.6414 23.8912 14.2912C25.2414 12.9409 26 11.1096 26 9.2C26 7.29044 25.2414 5.45909 23.8912 4.10883C22.5409 2.75857 20.7096 2 18.8 2C16.8904 2 15.0591 2.75857 13.7088 4.10883C12.3586 5.45909 11.6 7.29044 11.6 9.2C11.6 9.932 11.708 10.628 11.912 11.288L2 21.2ZM20 5.6C20.6365 5.6 21.247 5.85286 21.6971 6.30294C22.1471 6.75303 22.4 7.36348 22.4 8C22.4 8.63652 22.1471 9.24697 21.6971 9.69706C21.247 10.1471 20.6365 10.4 20 10.4C19.3635 10.4 18.753 10.1471 18.3029 9.69706C17.8529 9.24697 17.6 8.63652 17.6 8C17.6 7.36348 17.8529 6.75303 18.3029 6.30294C18.753 5.85286 19.3635 5.6 20 5.6Z" fill="black"/>
</svg>
