<svg width="28" height="28" viewBox="0 0 28 28" fill="none" xmlns="http://www.w3.org/2000/svg">
<path d="M12.9736 17.8045L11.2773 16.1201L12.9736 14.4238L14.658 16.1201L16.3425 14.4238L14.658 12.7393L16.3425 11.0549L18.0388 12.7393L19.7233 11.0549L16.3425 7.67413L7.89647 16.1201L11.2773 19.5009L12.9736 17.8045ZM3.33301 22.368L7.06024 18.6527L4.52763 16.1201L16.3425 4.29335L18.887 6.83789L20.5595 5.14153L18.887 3.44516L20.5595 1.76074L25.6366 6.83789L23.9522 8.51037L22.2559 6.83789L20.5595 8.51037L23.104 11.0549L11.2773 22.8698L8.74466 20.3371L3.33301 25.7607V22.368Z" fill="black"/>
</svg>
