<svg width="28" height="28" viewBox="0 0 28 28" fill="none" xmlns="http://www.w3.org/2000/svg">
<path d="M14 2C7.4 2 2 7.4 2 14V26H26V14C26 7.4 20.6 2 14 2ZM18.164 8.132C17.3 7.52 16.292 7.088 15.2 6.908V4.484C16.952 4.7 18.548 5.396 19.88 6.428L18.164 8.132ZM9.836 8.132L8.12 6.428C9.452 5.396 11.048 4.7 12.8 4.484V6.908C11.708 7.088 10.7 7.52 9.836 8.132ZM6.428 8.12L8.132 9.836C7.52 10.7 7.088 11.708 6.908 12.8H4.484C4.7 11.048 5.396 9.452 6.428 8.12ZM6.8 15.2V18.2H4.4V15.2H6.8ZM4.4 23.6V20.6H6.8V23.6H4.4ZM18.8 23.6H9.2V14C9.2 11.348 11.348 9.2 14 9.2C16.652 9.2 18.8 11.348 18.8 14V23.6ZM19.868 9.836L21.572 8.12C22.604 9.452 23.3 11.048 23.516 12.8H21.092C20.912 11.708 20.48 10.7 19.868 9.836ZM21.2 15.2H23.6V18.2H21.2V15.2ZM21.2 23.6V20.6H23.6V23.6H21.2Z" fill="black"/>
</svg>
