<svg width="28" height="28" viewBox="0 0 28 28" fill="none" xmlns="http://www.w3.org/2000/svg">
<path d="M10.5 3.5L3.92 5.71667C3.675 5.79833 3.5 6.00833 3.5 6.27667V23.9167C3.5 24.0714 3.56146 24.2197 3.67085 24.3291C3.78025 24.4385 3.92862 24.5 4.08333 24.5L4.27 24.465L10.5 22.05L17.5 24.5L24.08 22.2833C24.325 22.2017 24.5 21.9917 24.5 21.7233V4.08333C24.5 3.92862 24.4385 3.78025 24.3291 3.67085C24.2197 3.56146 24.0714 3.5 23.9167 3.5L23.73 3.535L17.5 5.95L10.5 3.5ZM9.33333 6.35833V20.0083L5.83333 21.3617V7.53667L9.33333 6.35833ZM11.6667 6.38167L16.3333 8.015V21.6183L11.6667 19.985V6.38167ZM22.1667 6.65V20.4633L18.6667 21.6417V8.00333L22.1667 6.65ZM8.70333 7.35L6.49833 8.13167V10.64L8.70333 9.85833V7.35ZM8.70333 10.5583L6.49833 11.34V13.8483L8.70333 13.0667V10.5583ZM8.70333 13.7667L6.49833 14.5483V17.0567L8.70333 16.275V13.7667ZM8.70333 16.975L6.49833 17.7567V20.265L8.70333 19.4833V16.975Z" fill="black"/>
</svg>
