<svg width="28" height="28" viewBox="0 0 28 28" fill="none" xmlns="http://www.w3.org/2000/svg">
<path d="M5.83333 3.5C4.53833 3.5 3.5 4.53833 3.5 5.83333V22.1667C3.5 22.7855 3.74583 23.379 4.18342 23.8166C4.621 24.2542 5.21449 24.5 5.83333 24.5H22.1667C22.7855 24.5 23.379 24.2542 23.8166 23.8166C24.2542 23.379 24.5 22.7855 24.5 22.1667V5.83333C24.5 4.53833 23.45 3.5 22.1667 3.5H5.83333ZM18.41 5.83333H22.1667V20.0433C21.8633 19.11 20.6383 18.4217 19.6 18.4217H18.4333V14.9217C18.4333 14.6122 18.3104 14.3155 18.0916 14.0967C17.8728 13.8779 17.5761 13.755 17.2667 13.755H10.2667V11.4217H12.6C12.9094 11.4217 13.2062 11.2987 13.425 11.08C13.6438 10.8612 13.7667 10.5644 13.7667 10.255V7.92167H16.1C17.3017 7.92167 18.2817 7 18.41 5.83333ZM5.83333 12.005L11.4333 17.255V18.4217C11.4333 19.7167 12.4833 20.755 13.7667 20.755V22.1667H5.83333V12.005Z" fill="black"/>
</svg>
