<svg width="28" height="28" viewBox="0 0 28 28" fill="none" xmlns="http://www.w3.org/2000/svg">
<path d="M12.856 10.4901C12.8863 10.3019 12.9456 10.1098 13.032 9.97314C13.032 9.9725 13.032 9.97185 13.0326 9.97121C13.3607 9.48971 13.2666 8.89606 13.3143 8.34624C13.3375 8.08196 13.4174 7.82864 13.4471 7.56501C13.4619 7.43545 13.4548 7.30525 13.4619 7.1744C13.4632 7.15184 13.4645 7.12863 13.4658 7.10543C13.4639 7.10543 13.4619 7.10607 13.46 7.10607C13.4123 6.91979 13.215 6.70708 13.1313 6.62393C13.0036 6.55367 13.0146 6.33645 13.0165 6.2114C13.0185 6.04897 13.0359 5.87816 13.0036 5.71702C12.9862 5.62871 12.9482 5.55716 12.9005 5.4927C12.7452 5.47723 12.5859 5.4334 12.4435 5.40569C12.1663 5.35219 11.8904 5.29224 11.6152 5.22714C11.1692 5.12207 10.7051 5.02796 10.3009 4.80172C10.299 4.80043 10.2977 4.79914 10.2964 4.79785C10.2964 4.79979 10.2964 4.80236 10.2964 4.8043C10.2964 4.8043 10.1443 4.78174 9.9232 5.09951C9.75755 5.35734 9.68149 5.44243 9.57642 5.44243C9.57642 5.44243 9.55257 5.18008 9.40303 5.18008H8.81131C8.81131 5.18008 8.57217 5.27161 8.17447 5.51333C8.07263 5.66932 7.94371 5.92715 7.65365 6.20625C7.54601 6.33001 7.51958 6.45505 7.50347 6.57817C7.41194 6.60524 6.99296 6.50146 6.99296 7.04935C6.99296 7.04935 7.0065 8.01235 6.29296 9.26153V9.77268C6.29296 9.77268 6.29296 9.91771 6.1157 10.1639C6.1157 10.4295 6.09572 10.8407 6.09572 10.8407C6.09572 10.8407 5.90234 11.0702 5.90234 11.2391C5.90234 11.4086 5.98292 13.8619 5.97067 14.3492H6.03126V14.462H6.09507V14.2054H6.16017V12.0732C6.16017 12.0732 6.26524 12.291 6.41027 12.4154C6.5553 12.5405 6.76865 12.7216 6.83698 12.8267H7.12317C7.12317 12.8267 7.27335 12.8396 7.30881 12.9782C7.53505 12.9801 7.75421 12.9549 7.98045 12.9769C8.21121 12.9994 8.44261 13.0123 8.67402 13.0246C9.16002 13.0491 9.64539 13.0877 10.1314 13.1064C10.6071 13.1245 11.0802 13.1483 11.5553 13.1786C11.7712 13.1928 11.9884 13.1844 12.2044 13.2012C12.2662 13.2057 12.3307 13.2044 12.3958 13.2038C12.4067 13.0987 12.4125 13.0362 12.4125 13.0362C12.4125 13.0362 12.8399 13.1567 13.041 12.5688C13.0571 12.8106 13.1538 13.1406 13.2105 12.4238C13.2589 11.9803 13.4522 11.513 13.5889 11.0618C13.6534 10.7963 13.6778 10.4417 12.856 10.4901ZM7.05742 8.3443C7.05742 8.51898 6.86405 8.5351 6.86405 8.5351V8.285C6.99554 7.8931 7.05742 7.9466 7.05742 7.9466V8.3443ZM13.3743 10.98C13.3743 10.98 13.2853 10.9845 13.1996 10.98C13.1783 10.9278 13.1377 10.8717 13.0842 10.8523C13.0114 11.0083 12.8051 11.1076 12.8051 11.1076C12.9121 10.6912 13.1622 10.7183 13.2453 10.7183C13.4174 10.7183 13.3743 10.98 13.3743 10.98Z" fill="black"/>
<path d="M23.1085 5.69455V5.56812H19.4645L19.3245 5.69198H19.193V5.50202H19.0004V5.43912H19.3245V5.2453H15.8525V5.11694H15.9808V4.9167L15.7941 4.72994V4.28711L13.7384 4.29289V4.92055H14.0516V5.26134H13.5459C13.4618 5.48148 13.1127 5.43784 13.1127 5.43784C11.8779 5.51613 10.7477 5.29728 10.7477 5.29728C10.6123 5.73242 10.7477 6.5815 10.7477 6.5815L10.9543 8.57041L12.2026 8.80594L13.2815 9.76221C14.0343 10.2314 14.2961 10.3437 14.2961 10.3437C14.2961 10.3437 14.6164 10.499 14.8192 10.4804C15.022 10.4611 15.6631 9.4779 15.6631 9.4779C16.2478 8.56014 16.3621 8.52869 16.4262 8.48633C16.4898 8.44462 16.5065 8.07751 16.5065 8.07751C16.5065 8.07751 16.5206 7.92413 16.6874 7.77331C16.8549 7.62248 16.8139 7.28298 16.8139 7.28298C16.8742 7.24896 17.0866 6.64697 17.0866 6.64697H19.1269V6.59626H19.1936V6.53209H19.071V6.40373H19.1936V6.08283H19.3245L19.4645 6.2221H23.1156V6.08283H23.1714V5.69455H23.1085ZM13.4336 7.09879C13.4336 7.09879 13.3944 6.89277 13.0684 6.5815H13.7384C13.7384 6.5815 13.6113 7.10649 13.4336 7.09879ZM15.0823 7.36577H15.1465V7.17067H15.2806V7.48963H14.8256V7.43187H15.0823V7.36577ZM14.5047 5.05084H14.6992V5.11117H14.8275V5.18754H14.5047V5.05084ZM14.5926 8.96767C14.5926 8.96767 14.5644 8.91055 14.5066 8.6917C14.4489 8.47221 14.3282 8.28224 14.2961 8.25015C14.2961 8.25015 14.4328 8.18918 14.5939 7.97098L14.737 7.8009H14.8192V7.61799L15.2806 7.62313V7.80989H15.2145V7.93824H15.3429V8.39327C15.3429 8.39327 15.3679 8.66475 14.5926 8.96767Z" fill="black"/>
<path d="M13.2444 4.34713C13.2444 4.34713 13.441 4.18933 13.9183 4.24527C13.9183 4.24527 14.2855 4.1878 14.2529 3.98218C14.2529 3.98218 13.8595 3.62835 13.1792 3.30379L13.1809 3.19209C13.1809 3.19209 13.3643 3.16847 13.1489 2.90681C13.1489 2.90681 13.0831 2.8119 13.0613 2.77728C13.0394 2.7433 12.8694 2.23468 11.6927 2.19926C11.6927 2.19926 10.7498 2.17293 10.3735 3.1393C10.3735 3.1393 10.1185 3.85253 10.3793 4.06017C10.3793 4.06017 10.377 4.22839 10.3251 4.38585C10.3251 4.38585 10.2771 4.66786 10.308 4.75818C10.3389 4.84913 9.64465 5.54544 9.64465 5.54544C9.64465 5.54544 11.1389 6.26308 11.1386 6.27719C11.1376 6.29187 12.4067 6.08439 12.4067 6.08439C12.4067 6.08439 12.8424 6.04689 12.8726 5.8143C12.9028 5.58108 13.0869 5.29003 13.0869 5.29003C13.0869 5.29003 13.1159 5.0959 13.2587 4.99952C13.2587 4.99952 13.4521 4.97832 13.4028 4.79461C13.3535 4.6109 13.2666 4.56571 13.2444 4.34713Z" fill="black"/>
<path d="M15.7703 26.0002H11.9376C11.9376 26.0002 12.0975 25.6173 12.042 24.8C12.042 24.8 11.9331 24.9573 11.7984 24.7781C11.6637 24.5982 11.6334 24.548 11.6334 24.548C11.6334 24.548 11.5786 24.5138 11.5973 23.982C11.5973 23.982 11.5818 23.8015 11.2847 23.5431C11.2847 23.5431 11.4374 21.7447 11.6637 20.7231C11.6637 20.7231 11.6766 20.5832 11.5534 20.4162C11.4297 20.2493 11.4136 20.2557 11.3897 20.1668C11.3897 20.1668 11.5554 19.6382 11.5025 19.4739C11.5025 19.4739 11.0829 19.5042 10.7935 18.8615C10.7935 18.8615 10.4158 18.7036 10.3964 18.3833C10.3964 18.3833 10.4113 18.2202 10.0761 17.8463C10.0761 17.8463 9.72994 18.8357 9.73059 19.6363C9.73188 20.4369 9.12275 21.1208 9.12275 21.1208C9.12275 21.1208 8.77662 21.4688 8.69347 21.5823C8.61096 21.6951 8.1907 22.3152 8.06629 23.2524C8.06629 23.2524 7.8813 24.0568 7.53194 24.3597C7.53194 24.3597 7.04464 24.4539 6.8358 24.7871C6.8358 24.7871 6.78037 24.9308 6.94216 25.13C6.94216 25.13 7.36435 25.2138 7.53839 25.549L7.6673 26.0002H5.00005C5.00005 26.0002 4.99296 25.8158 5.14508 25.8152V25.8674H5.20954V25.6824C5.20954 25.6824 5.25853 25.6953 5.26884 25.6263V25.3505C5.26884 25.3505 5.26497 25.297 5.20954 25.297V24.4268C5.20954 24.4268 5.27077 24.3778 5.26884 24.312C5.26626 24.2457 5.20954 24.2012 5.20954 24.2012V23.5347H5.40613V22.5156C5.40613 22.5156 5.23468 22.484 5.21727 22.301C5.19987 22.1186 5.18827 21.9787 5.34168 21.891V21.4856C5.34168 21.4856 5.53118 21.5165 5.52151 21.4237C5.51184 21.3309 5.52151 19.6782 5.52151 19.6782H5.59113V19.6247H5.8438V19.6782H5.91341V21.3219L5.97271 21.3812C5.97271 21.3812 6.11388 21.4108 6.21121 20.8713C6.21121 20.8713 6.21765 20.6077 6.3962 20.4659C6.57539 20.3241 6.66757 20.2055 6.68368 20.1417C6.6998 20.0772 6.6869 19.898 7.07365 19.1194C7.07365 19.1194 6.94796 18.8093 6.85965 18.6733C6.77199 18.5373 6.74234 18.4193 6.74427 18.1576C6.74427 18.1576 6.73396 18.0365 6.68175 17.9701C6.68175 17.9701 6.70882 17.5704 6.70302 17.535C6.69657 17.4989 6.99694 17.0812 6.81324 16.9645V16.7789C6.81324 16.7789 6.91573 16.6783 6.95698 16.3509C6.95698 16.3509 6.98856 15.8526 6.88157 15.6992V15.1514C6.88157 15.1514 6.87125 15.0779 6.95376 15.0469L6.94602 14.7769C6.94602 14.7769 6.72107 14.5248 6.68819 14.5106L6.68433 13.1893C6.68433 13.1893 6.66757 13.1016 6.88157 13.0404H7.20385L7.31794 12.9817L7.39336 12.3371V12.0252C7.39336 12.0252 8.02698 11.9504 8.22035 11.9285C8.41372 11.9072 9.29485 11.9285 9.44504 11.9607C9.59587 11.9929 10.3797 12.0896 10.5195 12.1006C10.6594 12.1115 11.3362 12.283 11.3685 12.3049C11.4007 12.3262 11.6585 12.6807 11.6585 12.6807L12.3965 13.2041C12.3965 13.2041 12.0227 13.3588 12.131 13.7049C12.131 13.7049 12.1626 13.9396 12.0343 14.1645C12.0343 14.1645 12.5081 14.8864 12.579 15.1623C12.579 15.1623 12.6885 15.5748 12.822 15.6464C12.9547 15.7173 13.0121 16.2968 13.0121 16.2968C13.0121 16.2968 13.1185 16.7499 13.7908 18.5276C13.7908 18.5276 13.9899 18.3626 14.0898 18.4168C14.1898 18.4709 14.162 18.6398 14.162 18.6398C14.162 18.6398 14.1665 18.779 14.2877 18.926C14.2877 18.926 14.3122 20.0056 14.0241 20.8681C14.0241 20.8681 13.7792 21.104 13.89 21.3489C13.89 21.3489 13.9622 23.1022 14.0995 23.6694C14.0995 23.6694 14.1156 23.7532 14.008 23.8841C14.008 23.8841 13.9944 24.1561 13.7482 24.3791C13.7482 24.3791 13.6702 24.4249 13.7746 24.6711C13.7746 24.6711 13.9841 24.6318 13.9719 24.8445C13.9719 24.8445 14.191 24.7736 14.1614 24.9895C14.1614 24.9895 14.3631 24.9328 14.3548 25.1668C14.3548 25.1668 14.5797 25.1339 14.6152 25.3505L14.806 25.3479C14.806 25.3479 14.9407 25.2119 15.0876 25.2267C15.0876 25.2267 15.7226 25.4413 15.7703 26.0002Z" fill="black"/>
</svg>
