<svg width="28" height="28" viewBox="0 0 28 28" fill="none" xmlns="http://www.w3.org/2000/svg">
<path d="M22.1667 3.50033H17.29C16.8 2.14699 15.5167 1.16699 14 1.16699C12.4833 1.16699 11.2 2.14699 10.71 3.50033H5.83333C4.55 3.50033 3.5 4.55033 3.5 5.83366V22.167C3.5 23.4503 4.55 24.5003 5.83333 24.5003H22.1667C23.45 24.5003 24.5 23.4503 24.5 22.167V5.83366C24.5 4.55033 23.45 3.50033 22.1667 3.50033ZM8.16667 9.33366H10.5V14.0003H9.33333V10.5003H8.16667V9.33366ZM11.6667 19.8337V21.0003H8.16667V19.927L10.5 17.5003H8.16667V16.3337H10.7917C11.27 16.3337 11.6667 16.7303 11.6667 17.2087C11.6667 17.442 11.5733 17.6637 11.4217 17.8153L9.47333 19.8337H11.6667ZM12.8333 4.66699C12.8333 4.02533 13.3583 3.50033 14 3.50033C14.6417 3.50033 15.1667 4.02533 15.1667 4.66699C15.1667 5.30866 14.6417 5.83366 14 5.83366C13.3583 5.83366 12.8333 5.30866 12.8333 4.66699ZM19.8333 19.8337H14V17.5003H19.8333V19.8337ZM19.8333 12.8337H14V10.5003H19.8333V12.8337Z" fill="black"/>
</svg>
