<svg width="28" height="28" viewBox="0 0 28 28" fill="none" xmlns="http://www.w3.org/2000/svg">
<path d="M23.6 13.2H4.4V12H6.8L8 6H14L15.2 12H23.6V13.2ZM15.464 7.2L15.944 9.6H26V7.2H15.464ZM26 18C26 18.9548 25.6207 19.8705 24.9456 20.5456C24.2705 21.2207 23.3548 21.6 22.4 21.6H5.6C4.64522 21.6 3.72955 21.2207 3.05442 20.5456C2.37928 19.8705 2 18.9548 2 18C2 17.0452 2.37928 16.1295 3.05442 15.4544C3.72955 14.7793 4.64522 14.4 5.6 14.4H22.4C23.3548 14.4 24.2705 14.7793 24.9456 15.4544C25.6207 16.1295 26 17.0452 26 18ZM6.8 18C6.8 17.6817 6.67357 17.3765 6.44853 17.1515C6.22348 16.9264 5.91826 16.8 5.6 16.8C5.28174 16.8 4.97652 16.9264 4.75147 17.1515C4.52643 17.3765 4.4 17.6817 4.4 18C4.4 18.3183 4.52643 18.6235 4.75147 18.8485C4.97652 19.0736 5.28174 19.2 5.6 19.2C5.91826 19.2 6.22348 19.0736 6.44853 18.8485C6.67357 18.6235 6.8 18.3183 6.8 18ZM15.2 18C15.2 17.6817 15.0736 17.3765 14.8485 17.1515C14.6235 16.9264 14.3183 16.8 14 16.8C13.6817 16.8 13.3765 16.9264 13.1515 17.1515C12.9264 17.3765 12.8 17.6817 12.8 18C12.8 18.3183 12.9264 18.6235 13.1515 18.8485C13.3765 19.0736 13.6817 19.2 14 19.2C14.3183 19.2 14.6235 19.0736 14.8485 18.8485C15.0736 18.6235 15.2 18.3183 15.2 18ZM23.6 18C23.6 17.6817 23.4736 17.3765 23.2485 17.1515C23.0235 16.9264 22.7183 16.8 22.4 16.8C22.0817 16.8 21.7765 16.9264 21.5515 17.1515C21.3264 17.3765 21.2 17.6817 21.2 18C21.2 18.3183 21.3264 18.6235 21.5515 18.8485C21.7765 19.0736 22.0817 19.2 22.4 19.2C22.7183 19.2 23.0235 19.0736 23.2485 18.8485C23.4736 18.6235 23.6 18.3183 23.6 18Z" fill="black"/>
</svg>
