<svg width="28" height="28" viewBox="0 0 28 28" fill="none" xmlns="http://www.w3.org/2000/svg">
<path d="M16.8571 21.9029C19.2914 21.5257 22 21.2857 24.8571 21.2857V25.8571H5.42857C5.42857 25.1143 9.08571 23.4114 14.5714 22.3143V14.8857C13.6114 15.1714 12.8 15.8114 12.2857 16.6571C11.5886 15.4914 10.3086 14.7143 8.85714 14.7143C7.40571 14.7143 6.12571 15.4914 5.42857 16.6571C5.46286 12.5657 9.42857 9.20571 14.5714 8.76V8.71429C14.5714 8.41118 14.6918 8.12049 14.9062 7.90616C15.1205 7.69184 15.4112 7.57143 15.7143 7.57143C16.0174 7.57143 16.3081 7.69184 16.5224 7.90616C16.7367 8.12049 16.8571 8.41118 16.8571 8.71429V8.76C22 9.20571 25.9543 12.5657 26 16.6571C25.3029 15.4914 24.0229 14.7143 22.5714 14.7143C21.12 14.7143 19.84 15.4914 19.1429 16.6571C18.6286 15.8114 17.8171 15.1714 16.8571 14.8743V21.9029ZM7.71429 3C7.71429 3.75041 7.56648 4.49347 7.27931 5.18676C6.99214 5.88005 6.57123 6.50999 6.04061 7.04061C5.50999 7.57123 4.88005 7.99214 4.18676 8.27931C3.49347 8.56648 2.75041 8.71429 2 8.71429V3H7.71429Z" fill="black"/>
</svg>
