<svg width="22" height="28" viewBox="0 0 22 28" fill="none" xmlns="http://www.w3.org/2000/svg">
<g opacity="0.2" clip-path="url(#clip0_362_1404)">
<path d="M6.13304 33.9999H11.7794C11.7794 33.9999 11.5439 33.4576 11.6255 32.2997C11.6255 32.2997 11.786 32.5225 11.9845 32.2687C12.1829 32.0139 12.2276 31.9427 12.2276 31.9427C12.2276 31.9427 12.3083 31.8943 12.2808 31.141C12.2808 31.141 12.3035 30.8853 12.7413 30.5192C12.7413 30.5192 12.5163 27.9716 12.1829 26.5243C12.1829 26.5243 12.164 26.3262 12.3453 26.0897C12.5277 25.8532 12.5514 25.8623 12.5865 25.7363C12.5865 25.7363 12.3425 24.9875 12.4203 24.7547C12.4203 24.7547 13.0385 24.7976 13.4649 23.8872C13.4649 23.8872 14.0214 23.6635 14.0499 23.2097C14.0499 23.2097 14.028 22.9787 14.5218 22.4491C14.5218 22.4491 15.0318 23.8507 15.0308 24.9848C15.0289 26.1189 15.9263 27.0877 15.9263 27.0877C15.9263 27.0877 16.4362 27.5808 16.5587 27.7415C16.6803 27.9013 17.2994 28.7797 17.4827 30.1074C17.4827 30.1074 17.7552 31.2469 18.2699 31.6761C18.2699 31.6761 18.9878 31.8094 19.2955 32.2815C19.2955 32.2815 19.3771 32.4851 19.1388 32.7672C19.1388 32.7672 18.5168 32.886 18.2604 33.3608L18.0705 33.9999H21.9999C21.9999 33.9999 22.0104 33.7388 21.7863 33.7379V33.8118H21.6913V33.5498C21.6913 33.5498 21.6191 33.568 21.6039 33.4703V33.0795C21.6039 33.0795 21.6096 33.0037 21.6913 33.0037V31.771C21.6913 31.771 21.6011 31.7016 21.6039 31.6085C21.6077 31.5145 21.6913 31.4515 21.6913 31.4515V30.5073H21.4017V29.0637C21.4017 29.0637 21.6543 29.0189 21.6799 28.7596C21.7055 28.5012 21.7226 28.3031 21.4966 28.1789V27.6045C21.4966 27.6045 21.2175 27.6484 21.2317 27.5169C21.2459 27.3854 21.2317 25.0442 21.2317 25.0442H21.1291V24.9684H20.7569V25.0442H20.6543V27.3726L20.567 27.4566C20.567 27.4566 20.359 27.4986 20.2156 26.7343C20.2156 26.7343 20.2061 26.3609 19.9431 26.16C19.6791 25.9591 19.5433 25.7911 19.5196 25.7007C19.4958 25.6094 19.5148 25.3555 18.9451 24.2525C18.9451 24.2525 19.1302 23.8133 19.2603 23.6206C19.3895 23.428 19.4332 23.2609 19.4303 22.8901C19.4303 22.8901 19.4455 22.7185 19.5224 22.6244C19.5224 22.6244 19.4825 22.0583 19.4911 22.0081C19.5006 21.9569 19.0581 21.3652 19.3287 21.2V20.937C19.3287 20.937 19.1777 20.7945 19.1169 20.3307C19.1169 20.3307 19.0704 19.6248 19.228 19.4075V18.6314C19.228 18.6314 19.2432 18.5273 19.1217 18.4835L19.1331 18.1009C19.1331 18.1009 19.4645 17.7438 19.5129 17.7238L19.5186 15.8519C19.5186 15.8519 19.5433 15.7277 19.228 15.6409H18.7532L18.5852 15.5579L18.4741 14.6447V14.2028C18.4741 14.2028 17.5406 14.0969 17.2557 14.0658C16.9708 14.0357 15.6727 14.0658 15.4515 14.1115C15.2293 14.1571 14.0746 14.2941 13.8685 14.3096C13.6624 14.3252 12.6653 14.568 12.6179 14.5991C12.5704 14.6292 12.1905 15.1314 12.1905 15.1314L11.1033 15.8729C11.1033 15.8729 11.654 16.092 11.4945 16.5824C11.4945 16.5824 11.448 16.9147 11.6369 17.2334C11.6369 17.2334 10.939 18.2561 10.8345 18.6469C10.8345 18.6469 10.6731 19.2313 10.4765 19.3327C10.2809 19.4331 10.1964 20.254 10.1964 20.254C10.1964 20.254 10.0397 20.8959 9.04927 23.4143C9.04927 23.4143 8.75584 23.1805 8.60865 23.2572C8.46146 23.3339 8.5023 23.5731 8.5023 23.5731C8.5023 23.5731 8.49565 23.7704 8.31713 23.9786C8.31713 23.9786 8.28104 25.508 8.70551 26.7298C8.70551 26.7298 9.06636 27.064 8.90303 27.4109C8.90303 27.4109 8.79667 29.8946 8.59441 30.6981C8.59441 30.6981 8.57067 30.8168 8.72925 31.0022C8.72925 31.0022 8.74919 31.3875 9.11194 31.7035C9.11194 31.7035 9.22684 31.7683 9.07301 32.1171C9.07301 32.1171 8.76439 32.0614 8.78243 32.3627C8.78243 32.3627 8.45956 32.2623 8.50325 32.5682C8.50325 32.5682 8.20602 32.4878 8.21837 32.8193C8.21837 32.8193 7.88696 32.7727 7.83473 33.0795L7.55365 33.0759C7.55365 33.0759 7.35518 32.8832 7.13867 32.9042C7.13867 32.9042 6.20331 33.2083 6.13304 33.9999Z" fill="#9CA3AF"/>
<path d="M10.4254 12.0266C10.3808 11.7599 10.2934 11.4878 10.1661 11.2943C10.1661 11.2933 10.1661 11.2924 10.1652 11.2915C9.68185 10.6094 9.82049 9.76845 9.75022 8.98956C9.71603 8.61519 9.59828 8.25634 9.5546 7.88287C9.53276 7.69934 9.5432 7.51489 9.53276 7.32953C9.53086 7.29757 9.52896 7.2647 9.52706 7.23183C9.52991 7.23183 9.53276 7.23274 9.53561 7.23274C9.60588 6.96885 9.89645 6.66752 10.0199 6.54973C10.2079 6.4502 10.1918 6.14249 10.1889 5.96534C10.1861 5.73524 10.1604 5.49326 10.2079 5.26499C10.2336 5.13989 10.2896 5.03853 10.3599 4.94722C10.5887 4.92531 10.8233 4.86322 11.0331 4.82395C11.4415 4.74817 11.8479 4.66325 12.2534 4.57102C12.9105 4.42219 13.5942 4.28887 14.1896 3.96837C14.1924 3.96654 14.1943 3.96472 14.1962 3.96289C14.1962 3.96563 14.1962 3.96928 14.1962 3.97202C14.1962 3.97202 14.4204 3.94006 14.7461 4.39023C14.9901 4.75547 15.1022 4.876 15.257 4.876C15.257 4.876 15.2921 4.50437 15.5124 4.50437H16.3841C16.3841 4.50437 16.7364 4.63403 17.3223 4.97644C17.4724 5.19742 17.6623 5.56266 18.0896 5.95804C18.2482 6.13335 18.2871 6.3105 18.3109 6.4849C18.4457 6.52325 19.063 6.37624 19.063 7.15239C19.063 7.15239 19.043 8.51657 20.0942 10.2862V11.0103C20.0942 11.0103 20.0942 11.2157 20.3554 11.5645C20.3554 11.9407 20.3848 12.5233 20.3848 12.5233C20.3848 12.5233 20.6697 12.8484 20.6697 13.0876C20.6697 13.3278 20.551 16.8031 20.569 17.4934H20.4798V17.6532H20.3857V17.2897H20.2898V14.2692C20.2898 14.2692 20.1351 14.5778 19.9214 14.754C19.7077 14.9312 19.3934 15.1878 19.2928 15.3366H18.8711C18.8711 15.3366 18.6499 15.3549 18.5976 15.5512C18.2643 15.5539 17.9415 15.5183 17.6082 15.5494C17.2682 15.5813 16.9273 15.5996 16.5864 15.6169C15.8704 15.6516 15.1553 15.7064 14.4393 15.7329C13.7385 15.7585 13.0415 15.7922 12.3417 15.8352C12.0236 15.8552 11.7035 15.8434 11.3854 15.8671C11.2943 15.8735 11.1993 15.8717 11.1034 15.8708C11.0873 15.7219 11.0787 15.6334 11.0787 15.6334C11.0787 15.6334 10.4491 15.8041 10.1528 14.9714C10.1291 15.3138 9.98667 15.7813 9.9031 14.7659C9.83188 14.1377 9.547 13.4757 9.34569 12.8365C9.25073 12.4603 9.21464 11.9581 10.4254 12.0266ZM18.968 8.98683C18.968 9.23428 19.2529 9.25711 19.2529 9.25711V8.90282C19.0592 8.34765 18.968 8.42344 18.968 8.42344V8.98683ZM9.6619 12.7205C9.6619 12.7205 9.79295 12.7269 9.91925 12.7205C9.95058 12.6466 10.0104 12.5671 10.0892 12.5397C10.1965 12.7607 10.5004 12.9013 10.5004 12.9013C10.3428 12.3115 9.97432 12.3498 9.85182 12.3498C9.59828 12.3498 9.6619 12.7205 9.6619 12.7205Z" fill="#9CA3AF"/>
<path d="M1.84202 21.2021L1.68071 21.1125L4.36498 16.6419L4.62607 16.558L4.72298 16.3966L4.48061 16.262L4.62243 16.0258L4.54219 15.9813L4.30345 16.3789L4.05617 16.2416L6.61373 11.982L6.44997 11.8911L6.35542 12.0485L6.09995 11.9067L5.99924 11.5453L5.43425 11.2316L6.95583 8.71382L7.75664 9.1584L7.52594 9.54263L7.96073 9.78401L8.33326 9.16357C8.67605 9.21635 8.87754 8.75712 8.87754 8.75712C9.88701 7.2977 10.4403 5.75615 10.4403 5.75615C11.0952 5.89822 12.0788 6.66576 12.0788 6.66576L14.4641 8.32804L13.8451 10.0263L14.2704 12.0272C14.3145 13.283 14.2649 13.6838 14.2649 13.6838C14.2649 13.6838 14.2271 14.1867 14.054 14.4224C13.88 14.6575 12.1533 14.7477 12.1533 14.7477C10.5517 14.8149 10.4275 14.9328 10.3262 14.9815C10.2261 15.0299 9.74547 14.7904 9.74547 14.7904C9.74547 14.7904 9.53937 14.699 9.22403 14.7969C8.90822 14.8956 8.50532 14.6047 8.50532 14.6047C8.41749 14.6547 7.49295 14.4889 7.49295 14.4889L5.99008 16.9919L5.9254 16.956L5.87623 17.0379L5.79435 16.9924L5.88464 16.842L5.72088 16.7511L5.63058 16.9015L5.22117 16.6742L5.12473 16.8348L5.19936 17.1051L2.50989 21.5844L2.33221 21.4857L2.29108 21.5542L1.79569 21.2792L1.84202 21.2021ZM10.7603 10.3273C10.7603 10.3273 10.5263 10.1333 10.3693 9.51285L9.87576 10.3349C9.87576 10.3349 10.6392 10.5508 10.7603 10.3273ZM9.88642 12.5391L9.83915 12.6178L9.59023 12.4796L9.49142 12.6442L9.89838 12.8701L10.2336 12.3119L10.1599 12.271L9.97076 12.5859L9.88642 12.5391ZM7.3584 10.1908L7.21516 10.4294L7.29213 10.4721L7.19758 10.6296L7.29502 10.6837L7.53281 10.2876L7.3584 10.1908ZM12.2909 13.073C12.2909 13.073 12.2388 12.9979 12.0022 12.772C11.7647 12.5457 11.6112 12.2631 11.5939 12.201C11.5939 12.201 11.4154 12.3255 11.0183 12.3686L10.6959 12.4237L10.6354 12.5245L10.402 12.3949L10.0687 12.9647L10.307 13.0969L10.3557 13.0158L10.5194 13.1068L10.4249 13.2642L11.0054 13.5865C11.0054 13.5865 11.3334 13.8095 12.2909 13.073Z" fill="#9CA3AF"/>
<path d="M9.85454 3.32496C9.85454 3.32496 9.56486 3.10142 8.86177 3.18067C8.86177 3.18067 8.32071 3.09926 8.36885 2.80798C8.36885 2.80798 8.94838 2.30674 9.95058 1.84696L9.94806 1.68872C9.94806 1.68872 9.67791 1.65527 9.99523 1.28459C9.99523 1.28459 10.0921 1.15015 10.1243 1.10111C10.1565 1.05296 10.4071 0.332456 12.1405 0.282279C12.1405 0.282279 13.5297 0.244971 14.084 1.61395C14.084 1.61395 14.4596 2.62432 14.0755 2.91845C14.0755 2.91845 14.0789 3.15675 14.1554 3.37981C14.1554 3.37981 14.2261 3.77932 14.1805 3.90726C14.1351 4.0361 15.1578 5.02251 15.1578 5.02251C15.1578 5.02251 12.9564 6.03912 12.9568 6.05911C12.9583 6.0799 11.0887 5.78598 11.0887 5.78598C11.0887 5.78598 10.4468 5.73286 10.4023 5.40337C10.3577 5.07299 10.0866 4.66068 10.0866 4.66068C10.0866 4.66068 10.0438 4.38568 9.83352 4.24914C9.83352 4.24914 9.54862 4.21911 9.62125 3.95887C9.69389 3.69863 9.82182 3.63461 9.85454 3.32496Z" fill="#9CA3AF"/>
</g>
<defs>
<clipPath id="clip0_362_1404">
<rect width="22" height="28" fill="white"/>
</clipPath>
</defs>
</svg>
