<svg width="28" height="28" viewBox="0 0 28 28" fill="none" xmlns="http://www.w3.org/2000/svg">
<path d="M22.1667 17.4997H19.8333V15.1663H22.1667M22.1667 22.1663H19.8333V19.833H22.1667M15.1667 8.16634H12.8333V5.83301H15.1667M15.1667 12.833H12.8333V10.4997H15.1667M15.1667 17.4997H12.8333V15.1663H15.1667M15.1667 22.1663H12.8333V19.833H15.1667M8.16667 12.833H5.83333V10.4997H8.16667M8.16667 17.4997H5.83333V15.1663H8.16667M8.16667 22.1663H5.83333V19.833H8.16667M17.5 12.833V5.83301L14 2.33301L10.5 5.83301V8.16634H3.5V24.4997H24.5V12.833H17.5Z" fill="black"/>
</svg>
