<svg width="28" height="28" viewBox="0 0 28 28" fill="none" xmlns="http://www.w3.org/2000/svg">
<path d="M6.99967 7.00033H20.9997V11.6203L13.9997 9.33366L6.99967 11.6203M4.59634 22.167H4.66634C6.53301 22.167 8.16634 21.1403 9.33301 19.8337C10.4997 21.1403 12.133 22.167 13.9997 22.167C15.8663 22.167 17.4997 21.1403 18.6663 19.8337C19.833 21.1403 21.4663 22.167 23.333 22.167H23.3913L25.608 14.362C25.7013 14.0703 25.6663 13.7437 25.538 13.4637C25.3863 13.1837 25.1413 12.9737 24.838 12.8803L23.333 12.3903V7.00033C23.333 5.70533 22.283 4.66699 20.9997 4.66699H17.4997V1.16699H10.4997V4.66699H6.99967C6.38084 4.66699 5.78734 4.91282 5.34976 5.35041C4.91217 5.78799 4.66634 6.38149 4.66634 7.00033V12.3903L3.16134 12.8803C2.85801 12.9737 2.61301 13.1837 2.46134 13.4637C2.33301 13.7437 2.29801 14.0703 2.39134 14.362M23.333 24.5003C21.7113 24.5003 20.0897 23.952 18.6663 22.9487C15.8197 24.9437 12.1797 24.9437 9.33301 22.9487C7.90967 23.952 6.28801 24.5003 4.66634 24.5003H2.33301V26.8337H4.66634C6.26467 26.8337 7.86301 26.4253 9.33301 25.667C12.2497 27.1837 15.7497 27.1837 18.6663 25.667C20.1363 26.4253 21.723 26.8337 23.333 26.8337H25.6663V24.5003H23.333Z" fill="black"/>
</svg>
