<svg width="28" height="28" viewBox="0 0 28 28" fill="none" xmlns="http://www.w3.org/2000/svg">
<path d="M14 7C14.9283 7 15.8185 7.36875 16.4749 8.02513C17.1313 8.6815 17.5 9.57174 17.5 10.5C17.5 11.4283 17.1313 12.3185 16.4749 12.9749C15.8185 13.6313 14.9283 14 14 14C13.0717 14 12.1815 13.6313 11.5251 12.9749C10.8687 12.3185 10.5 11.4283 10.5 10.5C10.5 9.57174 10.8687 8.6815 11.5251 8.02513C12.1815 7.36875 13.0717 7 14 7ZM7 9.5C7.56 9.5 8.08 9.65 8.53 9.92C8.38 11.35 8.8 12.77 9.66 13.88C9.16 14.84 8.16 15.5 7 15.5C6.20435 15.5 5.44129 15.1839 4.87868 14.6213C4.31607 14.0587 4 13.2956 4 12.5C4 11.7044 4.31607 10.9413 4.87868 10.3787C5.44129 9.81607 6.20435 9.5 7 9.5ZM21 9.5C21.7956 9.5 22.5587 9.81607 23.1213 10.3787C23.6839 10.9413 24 11.7044 24 12.5C24 13.2956 23.6839 14.0587 23.1213 14.6213C22.5587 15.1839 21.7956 15.5 21 15.5C19.84 15.5 18.84 14.84 18.34 13.88C19.2 12.77 19.62 11.35 19.47 9.92C19.92 9.65 20.44 9.5 21 9.5ZM7.5 19.75C7.5 17.68 10.41 16 14 16C17.59 16 20.5 17.68 20.5 19.75V21.5H7.5V19.75ZM2 21.5V20C2 18.61 3.89 17.44 6.45 17.1C5.86 17.78 5.5 18.72 5.5 19.75V21.5H2ZM26 21.5H22.5V19.75C22.5 18.72 22.14 17.78 21.55 17.1C24.11 17.44 26 18.61 26 20V21.5Z" fill="black"/>
</svg>
