<svg width="28" height="28" viewBox="0 0 28 28" fill="none" xmlns="http://www.w3.org/2000/svg">
<path d="M8.16658 5.83366H26.8332V10.5003H25.6666V11.667H18.6666C18.3572 11.667 18.0604 11.7899 17.8416 12.0087C17.6228 12.2275 17.4999 12.5242 17.4999 12.8337V14.0003C17.4999 14.6192 17.2541 15.2127 16.8165 15.6502C16.3789 16.0878 15.7854 16.3337 15.1666 16.3337H11.2232C10.7799 16.3337 10.3716 16.5903 10.1732 16.987L7.31491 22.692C7.11658 23.0887 6.71991 23.3337 6.27658 23.3337H2.33324C2.33324 23.3337 -1.16676 23.3337 3.49991 16.3337C3.49991 16.3337 6.99991 11.667 2.33324 11.667V5.83366H3.49991L4.08324 4.66699H7.58324L8.16658 5.83366ZM16.3332 14.0003V12.8337C16.3332 12.5242 16.2103 12.2275 15.9915 12.0087C15.7727 11.7899 15.476 11.667 15.1666 11.667H13.9999C13.9999 11.667 12.8332 12.8337 13.9999 14.0003C13.3811 14.0003 12.7876 13.7545 12.35 13.3169C11.9124 12.8793 11.6666 12.2858 11.6666 11.667C11.3572 11.667 11.0604 11.7899 10.8416 12.0087C10.6228 12.2275 10.4999 12.5242 10.4999 12.8337V14.0003C10.4999 14.3097 10.6228 14.6065 10.8416 14.8253C11.0604 15.0441 11.3572 15.167 11.6666 15.167H15.1666C15.476 15.167 15.7727 15.0441 15.9915 14.8253C16.2103 14.6065 16.3332 14.3097 16.3332 14.0003Z" fill="black"/>
</svg>
