<svg xmlns="http://www.w3.org/2000/svg" width="16" height="16" fill="none" viewBox="0 0 16 16"><path fill="#9ca3af" fill-rule="evenodd" d="M7.501 1.009a7.16 7.16 0 0 1 5.192 2.606l1.88-1.843L16 3.228l-2.234 2.19c.323.8.502 1.67.502 2.582l-.01.36C14.067 12.06 10.95 15 7.134 15l-.367-.009C2.997 14.804 0 11.745 0 8c0-3.866 3.194-7 7.134-7zm-.367 2.028C4.283 3.037 2.037 5.295 2.037 8s2.246 4.963 5.097 4.963c2.85 0 5.095-2.258 5.095-4.963q-.001-.5-.1-.976l-4.486 4.404-4.28-4.2L4.79 5.773l2.853 2.8 3.587-3.522a5.12 5.12 0 0 0-4.096-2.014" clip-rule="evenodd"/></svg>