<svg xmlns="http://www.w3.org/2000/svg" width="16" height="16" fill="none" viewBox="0 0 16 16"><g filter="url(#a)"><path fill="url(#b)" d="M9.5 13.5a.5.5 0 0 1-1 0V9h1z"/><path fill="url(#c)" d="M7.5 12.5a.5.5 0 0 1-1 0V9h1z"/><path fill="url(#d)" d="M5.5 11.25a.5.5 0 0 1-1 0V9h1z"/><path fill="url(#e)" d="M3.5 9.75a.5.5 0 0 1-1 0V9h1z"/><path fill="url(#f)" d="M11.5 9.25a.5.5 0 0 1-1 0V9h1z"/><path fill="url(#g)" d="M13.5 9.25a.5.5 0 0 1-1 0V9h1z"/><path fill="url(#h)" d="M9 2a.5.5 0 0 1 .5.5V7h1v-.25a.5.5 0 0 1 1 0V7h1v-.25a.5.5 0 0 1 1 0V7h2a.5.5 0 0 1 0 1H.5a.5.5 0 0 1 0-1h2v-.75a.5.5 0 0 1 1 0V7h1V4.75a.5.5 0 0 1 1 0V7h1V3.5a.5.5 0 0 1 1 0V7h1V2.5A.5.5 0 0 1 9 2"/></g><defs><linearGradient id="b" x1="8.11" x2="8.11" y1="2" y2="14" gradientUnits="userSpaceOnUse"><stop stop-color="#e4f9ff"/><stop offset="1" stop-color="#6096a6"/></linearGradient><linearGradient id="c" x1="8.11" x2="8.11" y1="2" y2="14" gradientUnits="userSpaceOnUse"><stop stop-color="#e4f9ff"/><stop offset="1" stop-color="#6096a6"/></linearGradient><linearGradient id="d" x1="8.11" x2="8.11" y1="2" y2="14" gradientUnits="userSpaceOnUse"><stop stop-color="#e4f9ff"/><stop offset="1" stop-color="#6096a6"/></linearGradient><linearGradient id="e" x1="8.11" x2="8.11" y1="2" y2="14" gradientUnits="userSpaceOnUse"><stop stop-color="#e4f9ff"/><stop offset="1" stop-color="#6096a6"/></linearGradient><linearGradient id="f" x1="8.11" x2="8.11" y1="2" y2="14" gradientUnits="userSpaceOnUse"><stop stop-color="#e4f9ff"/><stop offset="1" stop-color="#6096a6"/></linearGradient><linearGradient id="g" x1="8.11" x2="8.11" y1="2" y2="14" gradientUnits="userSpaceOnUse"><stop stop-color="#e4f9ff"/><stop offset="1" stop-color="#6096a6"/></linearGradient><linearGradient id="h" x1="8.11" x2="8.11" y1="2" y2="14" gradientUnits="userSpaceOnUse"><stop stop-color="#e4f9ff"/><stop offset="1" stop-color="#6096a6"/></linearGradient><filter id="a" width="16" height="12.25" x="0" y="2" color-interpolation-filters="sRGB" filterUnits="userSpaceOnUse"><feFlood flood-opacity="0" result="BackgroundImageFix"/><feBlend in="SourceGraphic" in2="BackgroundImageFix" result="shape"/><feColorMatrix in="SourceAlpha" result="hardAlpha" values="0 0 0 0 0 0 0 0 0 0 0 0 0 0 0 0 0 0 127 0"/><feOffset dy=".25"/><feGaussianBlur stdDeviation=".125"/><feComposite in2="hardAlpha" k2="-1" k3="1" operator="arithmetic"/><feColorMatrix values="0 0 0 0 1 0 0 0 0 1 0 0 0 0 1 0 0 0 1 0"/><feBlend in2="shape" result="effect1_innerShadow_319_901"/></filter></defs></svg>