<svg xmlns="http://www.w3.org/2000/svg" width="16" height="16" fill="none" viewBox="0 0 16 16"><g filter="url(#a)"><path fill="url(#b)" d="M12.038 5.75C15.394 9.625 14.36 12.5 9.585 16c4.777-6.375-2.322-4.875-1.162-9.125-1.19 1.16-2.15 1.246-1.936 5.125-.657-.07-.881-.339-1.162-1-.845 1.669-.271 2.794 1.162 4.875C-4.613 7.875 8.554 5 7.132 0c3.227 2 4.26 4.125 3.486 7.875.966-.439 1.182-.994 1.42-2.125"/></g><defs><linearGradient id="b" x1="8.082" x2="8.082" y1="0" y2="16" gradientUnits="userSpaceOnUse"><stop stop-color="#e4f9ff"/><stop offset="1" stop-color="#6096a6"/></linearGradient><filter id="a" width="12" height="16.25" x="2" y="0" color-interpolation-filters="sRGB" filterUnits="userSpaceOnUse"><feFlood flood-opacity="0" result="BackgroundImageFix"/><feBlend in="SourceGraphic" in2="BackgroundImageFix" result="shape"/><feColorMatrix in="SourceAlpha" result="hardAlpha" values="0 0 0 0 0 0 0 0 0 0 0 0 0 0 0 0 0 0 127 0"/><feOffset dy=".25"/><feGaussianBlur stdDeviation=".125"/><feComposite in2="hardAlpha" k2="-1" k3="1" operator="arithmetic"/><feColorMatrix values="0 0 0 0 1 0 0 0 0 1 0 0 0 0 1 0 0 0 1 0"/><feBlend in2="shape" result="effect1_innerShadow_319_888"/></filter></defs></svg>