<svg xmlns="http://www.w3.org/2000/svg" width="27" height="43" fill="none" viewBox="0 0 27 43"><g filter="url(#a)"><path fill="url(#b)" d="M14.632 21.378a.11.11 0 0 1 .083.037.12.12 0 0 1 .033.087c-.02.782-.177 4.998-1.253 4.998-1.077 0-1.224-4.219-1.242-4.998a.12.12 0 0 1 .033-.087.11.11 0 0 1 .082-.037z"/><path fill="url(#c)" d="M9.654 21.378a.11.11 0 0 1 .093.049 5.03 5.03 0 0 0 2.036 1.549q.033.013.053.044t.02.068v2.327a.13.13 0 0 1-.047.098.11.11 0 0 1-.104.018c-2.042-.726-3.809-2.114-5.043-3.963v-.002a.13.13 0 0 1-.006-.124.12.12 0 0 1 .102-.064z"/><path fill="url(#d)" d="M20.239 21.378q.031 0 .059.018a.1.1 0 0 1 .042.046.13.13 0 0 1-.006.124v.002c-1.233 1.849-3 3.237-5.043 3.963a.113.113 0 0 1-.138-.061.1.1 0 0 1-.013-.055v-2.327q0-.037.02-.068a.1.1 0 0 1 .054-.044 5.04 5.04 0 0 0 2.037-1.55.11.11 0 0 1 .092-.048z"/><path fill="url(#e)" fill-rule="evenodd" d="m9.565 16.315.04.004a.2.2 0 0 1 .102.058.21.21 0 0 1 .058.147v1.418h-.002c0 .312.317.209.32.602v2.154a.22.22 0 0 1-.059.147.2.2 0 0 1-.142.061H6.811a.2.2 0 0 1-.142-.06.2.2 0 0 1-.059-.148v-4.174c0-.055.021-.108.059-.148a.2.2 0 0 1 .142-.06zm-1.71 2.66a.14.14 0 0 0-.105.044.16.16 0 0 0-.044.111v.636q0 .03.01.06a.16.16 0 0 0 .082.084.2.2 0 0 0 .058.011h1.151q.062 0 .106-.045a.16.16 0 0 0 .044-.11v-.636a.16.16 0 0 0-.044-.11.15.15 0 0 0-.106-.046zm0-1.753a.14.14 0 0 0-.105.045.16.16 0 0 0-.044.11v.636a.16.16 0 0 0 .044.11.14.14 0 0 0 .106.045H8.7a.14.14 0 0 0 .106-.044.16.16 0 0 0 .043-.11v-.637a.16.16 0 0 0-.043-.11.15.15 0 0 0-.106-.045z" clip-rule="evenodd"/><path fill="url(#f)" d="m12.916 16.315.04.004a.2.2 0 0 1 .101.058.2.2 0 0 1 .06.147v.49h-.003a.22.22 0 0 1-.059.145.2.2 0 0 1-.139.061h-.995a.2.2 0 0 0-.142.06.2.2 0 0 0-.058.148v.528a.22.22 0 0 0 .058.148.2.2 0 0 0 .142.06h.556a.2.2 0 0 1 .141.062.2.2 0 0 1 .059.147v.398a.21.21 0 0 1-.123.192.2.2 0 0 1-.077.016h-.556a.2.2 0 0 0-.142.061.2.2 0 0 0-.058.148v.52c0 .055.02.108.058.147.037.04.088.061.142.061h.995l.04.004a.2.2 0 0 1 .101.057.2.2 0 0 1 .06.148v.566c0 .056-.022.11-.059.15a.2.2 0 0 1-.142.065h-2.213a.2.2 0 0 1-.14-.06.2.2 0 0 1-.06-.148v-4.174c0-.055.022-.108.06-.148a.2.2 0 0 1 .14-.06z"/><path fill="url(#g)" fill-rule="evenodd" d="m20.191 16.315.039.004a.2.2 0 0 1 .102.058.21.21 0 0 1 .06.147v2.11a.2.2 0 0 1-.06.147.2.2 0 0 1-.141.06h-.064a.19.19 0 0 0-.16.085.21.21 0 0 0-.03.186l.442 1.526a.22.22 0 0 1-.03.184.19.19 0 0 1-.16.084h-.871a.2.2 0 0 1-.113-.037.2.2 0 0 1-.074-.098l-.58-1.76a.04.04 0 0 0-.016-.019q-.012-.006-.025-.004a.04.04 0 0 0-.022.014.04.04 0 0 0-.008.024v1.672a.22.22 0 0 1-.06.147.2.2 0 0 1-.14.061h-.871a.2.2 0 0 1-.142-.06.2.2 0 0 1-.058-.148v-4.174c0-.055.02-.108.058-.148a.2.2 0 0 1 .142-.06zm-1.513.907a.2.2 0 0 0-.14.06.2.2 0 0 0-.06.148v.533c0 .055.022.108.06.147.037.039.087.06.14.06h.498a.2.2 0 0 0 .142-.06.2.2 0 0 0 .058-.147v-.533a.21.21 0 0 0-.059-.148.2.2 0 0 0-.14-.06z" clip-rule="evenodd"/><path fill="url(#h)" fill-rule="evenodd" d="M15.816 16.314a.37.37 0 0 1 .279.122l.581.622c.071.076.11.178.11.284v3.351a.22.22 0 0 1-.058.148.2.2 0 0 1-.142.061h-.615a.2.2 0 0 1-.14-.06.2.2 0 0 1-.059-.149v-1.51a.2.2 0 0 0-.06-.148.2.2 0 0 0-.14-.06h-.824a.2.2 0 0 0-.142.06.2.2 0 0 0-.058.148v1.51a.22.22 0 0 1-.06.148.2.2 0 0 1-.142.061h-.608a.2.2 0 0 1-.14-.06.22.22 0 0 1-.06-.149v-3.351c0-.106.04-.208.111-.284l.582-.622a.4.4 0 0 1 .276-.122zm-1.066.908a.2.2 0 0 0-.141.06.2.2 0 0 0-.059.148v.529a.22.22 0 0 0 .059.146q.027.03.065.046.037.015.076.015h.825a.2.2 0 0 0 .14-.06.2.2 0 0 0 .06-.148v-.528a.22.22 0 0 0-.06-.147.2.2 0 0 0-.14-.06z" clip-rule="evenodd"/><path fill="url(#i)" d="m8.761 2.975 2.98.007a.11.11 0 0 1 .082.035.12.12 0 0 1 .035.085v1.792a.13.13 0 0 1-.034.085.11.11 0 0 1-.082.036H9.99a.1.1 0 0 0-.062.019.1.1 0 0 0-.043.05 9.66 9.66 0 0 1-4.113 4.165.12.12 0 0 0-.06.096 26.4 26.4 0 0 0 .431 6.068v4.901q0 .039-.021.07a.12.12 0 0 1-.058.044.1.1 0 0 1-.07.002.12.12 0 0 1-.059-.042c-.716-.983-2.992-4.768-2.308-12.476a.13.13 0 0 1 .031-.073.12.12 0 0 1 .068-.037c.537-.08 3.328-.688 4.928-4.751a.12.12 0 0 1 .043-.055.1.1 0 0 1 .064-.02"/><path fill="url(#j)" d="M18.235 2.975q.037 0 .067.02t.044.056c1.6 4.063 4.391 4.67 4.928 4.751q.04.006.068.037.028.03.032.073c.683 7.71-1.594 11.493-2.31 12.476a.11.11 0 0 1-.129.04.12.12 0 0 1-.056-.044.12.12 0 0 1-.022-.07v-4.9c.378-1.998.523-4.036.431-6.07a.12.12 0 0 0-.06-.096 9.66 9.66 0 0 1-4.113-4.164.12.12 0 0 0-.072-.064l-.033-.005h-1.752a.11.11 0 0 1-.082-.036.13.13 0 0 1-.034-.085V3.102h-.002q.001-.05.035-.085a.11.11 0 0 1 .082-.035z"/><path fill="url(#k)" d="M8.09 13.24q.105.001.197.056.091.055.145.15l.986 1.78a.425.425 0 0 1-.145.562.4.4 0 0 1-.197.054H7.104a.4.4 0 0 1-.197-.055.4.4 0 0 1-.144-.15.43.43 0 0 1 0-.412l.986-1.779a.4.4 0 0 1 .144-.15.4.4 0 0 1 .197-.055"/><path fill="url(#l)" d="M17.497 12.445c.096.001.189.04.259.108.26.307.589.544.956.69.368.144.764.194 1.154.143l.06.002a.55.55 0 0 1 .368.183.6.6 0 0 1 .156.456v1.526a.28.28 0 0 1-.068.202.26.26 0 0 1-.188.087H10.065c-.471 0-.006-.6 0-.609 0 0 1.342-1.851 1.578-2.097a.43.43 0 0 1 .544 0q.343.248.645.55a.39.39 0 0 0 .524 0s.775-.687 1.072-.996a.4.4 0 0 1 .28-.117.4.4 0 0 1 .28.117s.185.163.63.574a.6.6 0 0 0 .922.085c.401-.458.557-.667.696-.8a.37.37 0 0 1 .26-.104"/><path fill="url(#m)" d="M9.966 11.203c.247 0 .484.102.659.284l.323.337q.13.136.202.315a1.01 1.01 0 0 1-.202 1.058l-.323.336a.92.92 0 0 1-.66.284.9.9 0 0 1-.658-.284l-.324-.336a1.007 1.007 0 0 1 0-1.373l.324-.337a.9.9 0 0 1 .659-.284"/><path fill="url(#n)" d="M6.829 9.546c.632 1.974 1.234 2.485 1.359 2.616a.225.225 0 0 1-.032.294s-.737.8-1.075 1.12c-.348.362-.433.024-.433.024-.672-2.485.172-4.037.18-4.053z"/><path fill="url(#o)" d="M12.549 9.797c.28 0 .548.116.747.322l.658.686a1.1 1.1 0 0 1 .309.777q0 .22-.08.422a1.1 1.1 0 0 1-.23.356l-.02.023a1.04 1.04 0 0 1-.748.323 1.04 1.04 0 0 1-.747-.323l-.658-.685a1.1 1.1 0 0 1-.229-.357 1.14 1.14 0 0 1 .23-1.199l.02-.023a1.04 1.04 0 0 1 .748-.322"/><path fill="url(#p)" d="M17.698 9.791c.344-.358 1.171-.077 1.847.627.676.705.942 1.567.6 1.925h.003l-.034.031c-.362.308-1.158.023-1.813-.66-.676-.704-.946-1.565-.603-1.923"/><path fill="url(#q)" d="M15.435 9.127c.284 0 .557.118.758.327l.692.721q.151.158.233.362a1.16 1.16 0 0 1-.233 1.217q-.151.157-.348.243a1.03 1.03 0 0 1-1.169-.243h.002l-.692-.722a1.12 1.12 0 0 1-.314-.789 1.12 1.12 0 0 1 .313-.79 1.05 1.05 0 0 1 .758-.326"/><path fill="url(#r)" d="M9.02 6.949a5.5 5.5 0 0 0 1.431 2.92c.228.248-.008.282-.104.289-1.685.133-1.545.836-1.808 1.11-.264.273-.303-.095-.303-.095-.301-2.703.77-4.204.784-4.223z"/><path fill="url(#s)" d="M15.91 5.856a8.9 8.9 0 0 1 3.41 2.556c.01.013 1.138 1.394 1.165 1.94.02.418-.207.142-.207.142a3.4 3.4 0 0 0-1.137-.946 3.3 3.3 0 0 0-1.228-.35l-.183-.01a.5.5 0 0 1-.338-.017.54.54 0 0 1-.26-.225 9.2 9.2 0 0 0-1.486-3.195l-.001-.001z"/><path fill="url(#t)" d="M10.334 5.837a10.3 10.3 0 0 1 3.177 2.887c.288.482-.155.375-.155.375-1.373-.302-1.779.24-1.959.424-.217.226-.265.116-.288-.058a16 16 0 0 0-1.025-3.767v-.002z"/><path fill="url(#u)" d="M12.217 5.302a4.3 4.3 0 0 1 1.925.783 5.75 5.75 0 0 1 1.952 1.82c.615 1.008.052.643.046.639-1.103-.647-1.525-.041-1.648.092-.124.134-.326.282-.436-.02a12.6 12.6 0 0 0-1.84-3.312z"/><path fill="url(#v)" d="M13.63 2.507c.305.031.59.171.809.399.25.26.39.613.392.981h.002l-.004.103c-.016.24-.09.472-.218.674a1.35 1.35 0 0 1-.598.516 1.3 1.3 0 0 1-.771.082 1.3 1.3 0 0 1-.685-.38 1.4 1.4 0 0 1-.367-.714 1.45 1.45 0 0 1 .075-.806c.101-.255.272-.473.492-.627.22-.153.478-.235.742-.235z"/></g><g filter="url(#w)"><g filter="url(#x)"><path fill="url(#y)" fill-rule="evenodd" d="M8.963 32.5q.268 0 .485.16.064.054.172.174.114.12.166.186.115.18.115.446v.48a.84.84 0 0 1-.21.561q.21.24.21.56v.48a.77.77 0 0 1-.115.433q-.147.22-.338.367a.8.8 0 0 1-.485.153H7.1v-4zm-1.085 3.22h1.079q.018 0 .076-.054a.6.6 0 0 0 .09-.12v-.486a.7.7 0 0 0-.096-.126q-.057-.06-.077-.06H7.878zm0-1.6h1.079q.018 0 .076-.054a.7.7 0 0 0 .09-.113v-.487a.7.7 0 0 0-.096-.126q-.057-.06-.077-.06H7.878z" clip-rule="evenodd"/><path fill="url(#z)" d="M12.734 33.28h-1.736v.82h1.678v.78h-1.678v.84h1.736v.78H10.22v-4h2.514z"/><path fill="url(#A)" fill-rule="evenodd" d="M16.562 36.5h-.83l-.255-.766h-1.334q-.038.126-.133.386-.09.254-.128.38h-.83l1.327-4h.862zm-1.972-2.187-.21.64h.861l-.434-1.287q-.07.214-.217.647" clip-rule="evenodd"/><path fill="url(#B)" fill-rule="evenodd" d="M18.744 32.5q.28 0 .479.153.191.154.345.367a.75.75 0 0 1 .12.44v.567q0 .246-.12.433a1 1 0 0 1-.16.187q-.114.12-.185.173a1 1 0 0 1-.153.093l.83 1.587h-.868l-.76-1.527h-.612V36.5h-.78v-4zm-1.084 1.693h1.084q.019 0 .077-.053a.5.5 0 0 0 .09-.106v-.594a.4.4 0 0 0-.167-.16H17.66z" clip-rule="evenodd"/><path fill="url(#C)" fill-rule="evenodd" d="M19.9 30.5a2 2 0 0 1 2 2v4a2 2 0 0 1-2 2H7.1a2 2 0 0 1-2-2v-4a2 2 0 0 1 2-2zm-12.8.4a1.6 1.6 0 0 0-1.6 1.6v4l.008.163A1.6 1.6 0 0 0 7.1 38.1h12.8l.163-.009A1.6 1.6 0 0 0 21.5 36.5v-4a1.6 1.6 0 0 0-1.437-1.591L19.9 30.9z" clip-rule="evenodd"/></g></g><defs><linearGradient id="b" x1="24.701" x2="11.607" y1="26.5" y2="2.787" gradientUnits="userSpaceOnUse"><stop stop-color="#6b6b6b"/><stop offset=".481" stop-color="#dfdfdf"/><stop offset=".656" stop-color="#727272"/><stop offset=".854" stop-color="#dadada"/><stop offset="1" stop-color="#9e9e9e"/></linearGradient><linearGradient id="c" x1="24.701" x2="11.607" y1="26.5" y2="2.787" gradientUnits="userSpaceOnUse"><stop stop-color="#6b6b6b"/><stop offset=".481" stop-color="#dfdfdf"/><stop offset=".656" stop-color="#727272"/><stop offset=".854" stop-color="#dadada"/><stop offset="1" stop-color="#9e9e9e"/></linearGradient><linearGradient id="d" x1="24.701" x2="11.607" y1="26.5" y2="2.787" gradientUnits="userSpaceOnUse"><stop stop-color="#6b6b6b"/><stop offset=".481" stop-color="#dfdfdf"/><stop offset=".656" stop-color="#727272"/><stop offset=".854" stop-color="#dadada"/><stop offset="1" stop-color="#9e9e9e"/></linearGradient><linearGradient id="e" x1="24.701" x2="11.607" y1="26.5" y2="2.787" gradientUnits="userSpaceOnUse"><stop stop-color="#6b6b6b"/><stop offset=".481" stop-color="#dfdfdf"/><stop offset=".656" stop-color="#727272"/><stop offset=".854" stop-color="#dadada"/><stop offset="1" stop-color="#9e9e9e"/></linearGradient><linearGradient id="f" x1="24.701" x2="11.607" y1="26.5" y2="2.787" gradientUnits="userSpaceOnUse"><stop stop-color="#6b6b6b"/><stop offset=".481" stop-color="#dfdfdf"/><stop offset=".656" stop-color="#727272"/><stop offset=".854" stop-color="#dadada"/><stop offset="1" stop-color="#9e9e9e"/></linearGradient><linearGradient id="g" x1="24.701" x2="11.607" y1="26.5" y2="2.787" gradientUnits="userSpaceOnUse"><stop stop-color="#6b6b6b"/><stop offset=".481" stop-color="#dfdfdf"/><stop offset=".656" stop-color="#727272"/><stop offset=".854" stop-color="#dadada"/><stop offset="1" stop-color="#9e9e9e"/></linearGradient><linearGradient id="h" x1="24.701" x2="11.607" y1="26.5" y2="2.787" gradientUnits="userSpaceOnUse"><stop stop-color="#6b6b6b"/><stop offset=".481" stop-color="#dfdfdf"/><stop offset=".656" stop-color="#727272"/><stop offset=".854" stop-color="#dadada"/><stop offset="1" stop-color="#9e9e9e"/></linearGradient><linearGradient id="i" x1="24.701" x2="11.607" y1="26.5" y2="2.787" gradientUnits="userSpaceOnUse"><stop stop-color="#6b6b6b"/><stop offset=".481" stop-color="#dfdfdf"/><stop offset=".656" stop-color="#727272"/><stop offset=".854" stop-color="#dadada"/><stop offset="1" stop-color="#9e9e9e"/></linearGradient><linearGradient id="j" x1="24.701" x2="11.607" y1="26.5" y2="2.787" gradientUnits="userSpaceOnUse"><stop stop-color="#6b6b6b"/><stop offset=".481" stop-color="#dfdfdf"/><stop offset=".656" stop-color="#727272"/><stop offset=".854" stop-color="#dadada"/><stop offset="1" stop-color="#9e9e9e"/></linearGradient><linearGradient id="k" x1="24.701" x2="11.607" y1="26.5" y2="2.787" gradientUnits="userSpaceOnUse"><stop stop-color="#6b6b6b"/><stop offset=".481" stop-color="#dfdfdf"/><stop offset=".656" stop-color="#727272"/><stop offset=".854" stop-color="#dadada"/><stop offset="1" stop-color="#9e9e9e"/></linearGradient><linearGradient id="l" x1="24.701" x2="11.607" y1="26.5" y2="2.787" gradientUnits="userSpaceOnUse"><stop stop-color="#6b6b6b"/><stop offset=".481" stop-color="#dfdfdf"/><stop offset=".656" stop-color="#727272"/><stop offset=".854" stop-color="#dadada"/><stop offset="1" stop-color="#9e9e9e"/></linearGradient><linearGradient id="m" x1="24.701" x2="11.607" y1="26.5" y2="2.787" gradientUnits="userSpaceOnUse"><stop stop-color="#6b6b6b"/><stop offset=".481" stop-color="#dfdfdf"/><stop offset=".656" stop-color="#727272"/><stop offset=".854" stop-color="#dadada"/><stop offset="1" stop-color="#9e9e9e"/></linearGradient><linearGradient id="n" x1="24.701" x2="11.607" y1="26.5" y2="2.787" gradientUnits="userSpaceOnUse"><stop stop-color="#6b6b6b"/><stop offset=".481" stop-color="#dfdfdf"/><stop offset=".656" stop-color="#727272"/><stop offset=".854" stop-color="#dadada"/><stop offset="1" stop-color="#9e9e9e"/></linearGradient><linearGradient id="o" x1="24.701" x2="11.607" y1="26.5" y2="2.787" gradientUnits="userSpaceOnUse"><stop stop-color="#6b6b6b"/><stop offset=".481" stop-color="#dfdfdf"/><stop offset=".656" stop-color="#727272"/><stop offset=".854" stop-color="#dadada"/><stop offset="1" stop-color="#9e9e9e"/></linearGradient><linearGradient id="p" x1="24.701" x2="11.607" y1="26.5" y2="2.787" gradientUnits="userSpaceOnUse"><stop stop-color="#6b6b6b"/><stop offset=".481" stop-color="#dfdfdf"/><stop offset=".656" stop-color="#727272"/><stop offset=".854" stop-color="#dadada"/><stop offset="1" stop-color="#9e9e9e"/></linearGradient><linearGradient id="q" x1="24.701" x2="11.607" y1="26.5" y2="2.787" gradientUnits="userSpaceOnUse"><stop stop-color="#6b6b6b"/><stop offset=".481" stop-color="#dfdfdf"/><stop offset=".656" stop-color="#727272"/><stop offset=".854" stop-color="#dadada"/><stop offset="1" stop-color="#9e9e9e"/></linearGradient><linearGradient id="r" x1="24.701" x2="11.607" y1="26.5" y2="2.787" gradientUnits="userSpaceOnUse"><stop stop-color="#6b6b6b"/><stop offset=".481" stop-color="#dfdfdf"/><stop offset=".656" stop-color="#727272"/><stop offset=".854" stop-color="#dadada"/><stop offset="1" stop-color="#9e9e9e"/></linearGradient><linearGradient id="s" x1="24.701" x2="11.607" y1="26.5" y2="2.787" gradientUnits="userSpaceOnUse"><stop stop-color="#6b6b6b"/><stop offset=".481" stop-color="#dfdfdf"/><stop offset=".656" stop-color="#727272"/><stop offset=".854" stop-color="#dadada"/><stop offset="1" stop-color="#9e9e9e"/></linearGradient><linearGradient id="t" x1="24.701" x2="11.607" y1="26.5" y2="2.787" gradientUnits="userSpaceOnUse"><stop stop-color="#6b6b6b"/><stop offset=".481" stop-color="#dfdfdf"/><stop offset=".656" stop-color="#727272"/><stop offset=".854" stop-color="#dadada"/><stop offset="1" stop-color="#9e9e9e"/></linearGradient><linearGradient id="u" x1="24.701" x2="11.607" y1="26.5" y2="2.787" gradientUnits="userSpaceOnUse"><stop stop-color="#6b6b6b"/><stop offset=".481" stop-color="#dfdfdf"/><stop offset=".656" stop-color="#727272"/><stop offset=".854" stop-color="#dadada"/><stop offset="1" stop-color="#9e9e9e"/></linearGradient><linearGradient id="v" x1="24.701" x2="11.607" y1="26.5" y2="2.787" gradientUnits="userSpaceOnUse"><stop stop-color="#6b6b6b"/><stop offset=".481" stop-color="#dfdfdf"/><stop offset=".656" stop-color="#727272"/><stop offset=".854" stop-color="#dadada"/><stop offset="1" stop-color="#9e9e9e"/></linearGradient><linearGradient id="y" x1="22.909" x2="20.752" y1="38.5" y2="28.658" gradientUnits="userSpaceOnUse"><stop stop-color="#6b6b6b"/><stop offset=".481" stop-color="#dfdfdf"/><stop offset=".656" stop-color="#727272"/><stop offset=".854" stop-color="#dadada"/><stop offset="1" stop-color="#9e9e9e"/></linearGradient><linearGradient id="z" x1="22.909" x2="20.752" y1="38.5" y2="28.658" gradientUnits="userSpaceOnUse"><stop stop-color="#6b6b6b"/><stop offset=".481" stop-color="#dfdfdf"/><stop offset=".656" stop-color="#727272"/><stop offset=".854" stop-color="#dadada"/><stop offset="1" stop-color="#9e9e9e"/></linearGradient><linearGradient id="A" x1="22.909" x2="20.752" y1="38.5" y2="28.658" gradientUnits="userSpaceOnUse"><stop stop-color="#6b6b6b"/><stop offset=".481" stop-color="#dfdfdf"/><stop offset=".656" stop-color="#727272"/><stop offset=".854" stop-color="#dadada"/><stop offset="1" stop-color="#9e9e9e"/></linearGradient><linearGradient id="B" x1="22.909" x2="20.752" y1="38.5" y2="28.658" gradientUnits="userSpaceOnUse"><stop stop-color="#6b6b6b"/><stop offset=".481" stop-color="#dfdfdf"/><stop offset=".656" stop-color="#727272"/><stop offset=".854" stop-color="#dadada"/><stop offset="1" stop-color="#9e9e9e"/></linearGradient><linearGradient id="C" x1="22.909" x2="20.752" y1="38.5" y2="28.658" gradientUnits="userSpaceOnUse"><stop stop-color="#6b6b6b"/><stop offset=".481" stop-color="#dfdfdf"/><stop offset=".656" stop-color="#727272"/><stop offset=".854" stop-color="#dadada"/><stop offset="1" stop-color="#9e9e9e"/></linearGradient><filter id="a" width="27" height="31" x="0" y="0" color-interpolation-filters="sRGB" filterUnits="userSpaceOnUse"><feFlood flood-opacity="0" result="BackgroundImageFix"/><feColorMatrix in="SourceAlpha" result="hardAlpha" values="0 0 0 0 0 0 0 0 0 0 0 0 0 0 0 0 0 0 127 0"/><feOffset dy=".081"/><feGaussianBlur stdDeviation=".143"/><feColorMatrix values="0 0 0 0 0 0 0 0 0 0 0 0 0 0 0 0 0 0 0.219852 0"/><feBlend in2="BackgroundImageFix" result="effect1_dropShadow_342_1966"/><feColorMatrix in="SourceAlpha" result="hardAlpha" values="0 0 0 0 0 0 0 0 0 0 0 0 0 0 0 0 0 0 127 0"/><feOffset dy=".081"/><feGaussianBlur stdDeviation=".143"/><feColorMatrix values="0 0 0 0 0 0 0 0 0 0 0 0 0 0 0 0 0 0 0.219852 0"/><feBlend in2="effect1_dropShadow_342_1966" result="effect2_dropShadow_342_1966"/><feColorMatrix in="SourceAlpha" result="hardAlpha" values="0 0 0 0 0 0 0 0 0 0 0 0 0 0 0 0 0 0 127 0"/><feOffset dy=".385"/><feGaussianBlur stdDeviation=".557"/><feColorMatrix values="0 0 0 0 0 0 0 0 0 0 0 0 0 0 0 0 0 0 0.340148 0"/><feBlend in2="effect2_dropShadow_342_1966" result="effect3_dropShadow_342_1966"/><feColorMatrix in="SourceAlpha" result="hardAlpha" values="0 0 0 0 0 0 0 0 0 0 0 0 0 0 0 0 0 0 127 0"/><feOffset dy=".385"/><feGaussianBlur stdDeviation=".557"/><feColorMatrix values="0 0 0 0 0 0 0 0 0 0 0 0 0 0 0 0 0 0 0.340148 0"/><feBlend in2="effect3_dropShadow_342_1966" result="effect4_dropShadow_342_1966"/><feColorMatrix in="SourceAlpha" result="hardAlpha" values="0 0 0 0 0 0 0 0 0 0 0 0 0 0 0 0 0 0 127 0"/><feOffset dy="1"/><feGaussianBlur stdDeviation="1.75"/><feColorMatrix values="0 0 0 0 0 0 0 0 0 0 0 0 0 0 0 0 0 0 0.56 0"/><feBlend in2="effect4_dropShadow_342_1966" result="effect5_dropShadow_342_1966"/><feColorMatrix in="SourceAlpha" result="hardAlpha" values="0 0 0 0 0 0 0 0 0 0 0 0 0 0 0 0 0 0 127 0"/><feOffset dy="1"/><feGaussianBlur stdDeviation="1.75"/><feColorMatrix values="0 0 0 0 0 0 0 0 0 0 0 0 0 0 0 0 0 0 0.56 0"/><feBlend in2="effect5_dropShadow_342_1966" result="effect6_dropShadow_342_1966"/><feBlend in="SourceGraphic" in2="effect6_dropShadow_342_1966" result="shape"/></filter><filter id="w" width="31" height="19" x="-2" y="26" color-interpolation-filters="sRGB" filterUnits="userSpaceOnUse"><feFlood flood-opacity="0" result="BackgroundImageFix"/><feColorMatrix in="SourceAlpha" result="hardAlpha" values="0 0 0 0 0 0 0 0 0 0 0 0 0 0 0 0 0 0 127 0"/><feOffset dy=".081"/><feGaussianBlur stdDeviation=".143"/><feColorMatrix values="0 0 0 0 0 0 0 0 0 0 0 0 0 0 0 0 0 0 0.219852 0"/><feBlend in2="BackgroundImageFix" result="effect1_dropShadow_342_1966"/><feColorMatrix in="SourceAlpha" result="hardAlpha" values="0 0 0 0 0 0 0 0 0 0 0 0 0 0 0 0 0 0 127 0"/><feOffset dy=".385"/><feGaussianBlur stdDeviation=".557"/><feColorMatrix values="0 0 0 0 0 0 0 0 0 0 0 0 0 0 0 0 0 0 0.340148 0"/><feBlend in2="effect1_dropShadow_342_1966" result="effect2_dropShadow_342_1966"/><feColorMatrix in="SourceAlpha" result="hardAlpha" values="0 0 0 0 0 0 0 0 0 0 0 0 0 0 0 0 0 0 127 0"/><feOffset dy="1"/><feGaussianBlur stdDeviation="1.75"/><feColorMatrix values="0 0 0 0 0 0 0 0 0 0 0 0 0 0 0 0 0 0 0.56 0"/><feBlend in2="effect2_dropShadow_342_1966" result="effect3_dropShadow_342_1966"/><feBlend in="SourceGraphic" in2="effect3_dropShadow_342_1966" result="shape"/></filter><filter id="x" width="22.4" height="13.6" x="2.3" y="28.5" color-interpolation-filters="sRGB" filterUnits="userSpaceOnUse"><feFlood flood-opacity="0" result="BackgroundImageFix"/><feColorMatrix in="SourceAlpha" result="hardAlpha" values="0 0 0 0 0 0 0 0 0 0 0 0 0 0 0 0 0 0 127 0"/><feOffset dy=".065"/><feGaussianBlur stdDeviation=".114"/><feColorMatrix values="0 0 0 0 0 0 0 0 0 0 0 0 0 0 0 0 0 0 0.219852 0"/><feBlend in2="BackgroundImageFix" result="effect1_dropShadow_342_1966"/><feColorMatrix in="SourceAlpha" result="hardAlpha" values="0 0 0 0 0 0 0 0 0 0 0 0 0 0 0 0 0 0 127 0"/><feOffset dy=".308"/><feGaussianBlur stdDeviation=".446"/><feColorMatrix values="0 0 0 0 0 0 0 0 0 0 0 0 0 0 0 0 0 0 0.340148 0"/><feBlend in2="effect1_dropShadow_342_1966" result="effect2_dropShadow_342_1966"/><feColorMatrix in="SourceAlpha" result="hardAlpha" values="0 0 0 0 0 0 0 0 0 0 0 0 0 0 0 0 0 0 127 0"/><feOffset dy=".8"/><feGaussianBlur stdDeviation="1.4"/><feColorMatrix values="0 0 0 0 0 0 0 0 0 0 0 0 0 0 0 0 0 0 0.56 0"/><feBlend in2="effect2_dropShadow_342_1966" result="effect3_dropShadow_342_1966"/><feBlend in="SourceGraphic" in2="effect3_dropShadow_342_1966" result="shape"/></filter></defs></svg>