<svg xmlns="http://www.w3.org/2000/svg" width="24" height="12" fill="none" viewBox="0 0 24 12"><path fill="#9ca3af" fill-rule="evenodd" d="M6.33 3.5q.334 0 .606.2.08.067.214.217.145.15.208.233.144.225.144.558v.6q0 .393-.264.7.264.3.264.7v.6a.96.96 0 0 1-.144.542 1.9 1.9 0 0 1-.422.459 1 1 0 0 1-.607.191H4v-5zM4.972 7.525H6.32q.024 0 .096-.067.072-.075.111-.15V6.7a.8.8 0 0 0-.119-.158q-.071-.075-.096-.075h-1.34zm0-2H6.32q.024 0 .096-.067a1 1 0 0 0 .111-.142v-.608a.8.8 0 0 0-.119-.158q-.071-.075-.096-.075h-1.34z" clip-rule="evenodd"/><path fill="#9ca3af" d="M11.043 4.475h-2.17V5.5h2.098v.975H8.873v1.05h2.17V8.5H7.9v-5h3.143z"/><path fill="#9ca3af" fill-rule="evenodd" d="M15.828 8.5h-1.037l-.32-.958h-1.666a9 9 0 0 1-.167.483q-.113.317-.16.475H11.44l1.66-5h1.077zm-2.465-2.733-.263.8h1.077l-.542-1.609zM18.556 3.5q.35 0 .598.191.24.193.431.46.15.216.151.55v.707q0 .31-.151.542a1.3 1.3 0 0 1-.2.234 2 2 0 0 1-.23.216 1.3 1.3 0 0 1-.192.117L20 8.5h-1.085l-.95-1.908H17.2V8.5h-.973v-5zM17.2 5.616h1.356q.024 0 .095-.066a.6.6 0 0 0 .113-.133v-.742a.5.5 0 0 0-.208-.2H17.2z" clip-rule="evenodd"/><path fill="#9ca3af" fill-rule="evenodd" d="M20 1a2.5 2.5 0 0 1 2.5 2.5v5A2.5 2.5 0 0 1 20 11H4a2.5 2.5 0 0 1-2.5-2.5v-5A2.5 2.5 0 0 1 4 1zM4 1.5a2 2 0 0 0-2 2v5l.01.204A2 2 0 0 0 4 10.5h16l.204-.01A2 2 0 0 0 22 8.5v-5a2 2 0 0 0-1.796-1.99L20 1.5z" clip-rule="evenodd"/></svg>