<svg xmlns="http://www.w3.org/2000/svg" width="16" height="16" fill="none" viewBox="0 0 16 16"><g filter="url(#a)"><path fill="url(#b)" d="M5.375 11.42h-.75v-.72h.75z"/><path fill="url(#c)" d="M11.375 11.42h-.75v-.72h.75z"/><path fill="url(#d)" d="M6.632 9.92h.012q.046-.05.132-.152l.128-.148h.161l-.312.359.14.161.174.2h-.162l-.26-.3h-.013v.3H6.5v-.72h.132z"/><path fill="url(#e)" fill-rule="evenodd" d="M7.767 10.34h-.14l-.055-.153h-.285l-.055.153h-.14l.261-.72h.153zm-.439-.274h.202l-.1-.284z" clip-rule="evenodd"/><path fill="url(#f)" fill-rule="evenodd" d="M8.217 9.62q.05 0 .09.027.012.008.034.03l.033.036a.13.13 0 0 1 .022.073v.106a.13.13 0 0 1-.022.073L8.342 10l-.036.03a.16.16 0 0 1-.09.027h-.22v.284h-.132v-.72zm-.22.316h.22q.009 0 .024-.014a.1.1 0 0 0 .022-.026l.001-.005v-.104l-.001-.008q-.02-.036-.04-.039h-.227z" clip-rule="evenodd"/><path fill="url(#g)" fill-rule="evenodd" d="M8.89 9.62q.051 0 .09.027.012.008.035.03l.032.036a.13.13 0 0 1 .023.073v.106a.13.13 0 0 1-.023.073L9.016 10l-.036.03a.16.16 0 0 1-.09.027h-.22v.284h-.132v-.72zm-.22.316h.22q.01 0 .025-.014a.1.1 0 0 0 .022-.026l.001-.005v-.104l-.001-.008q-.02-.036-.04-.039H8.67z" clip-rule="evenodd"/><path fill="url(#h)" fill-rule="evenodd" d="M9.739 10.34h-.14l-.056-.153h-.285l-.055.153h-.14l.262-.72h.153zm-.439-.274h.201l-.1-.284z" clip-rule="evenodd"/><path fill="url(#i)" fill-rule="evenodd" d="M5.75 3.86h4.5V3.5h1.875L14 4.94v5.04l-.75.72v1.08l-1.5.72h-7.5l-1.5-.72V10.7L2 9.98V4.94L3.875 3.5H5.75zm-1.5 7.92h1.5v-1.8h-1.5zm1.688-.36.375.36h.843v-.36H6.5l-.375-.18v-.18h-.187zm1.406.36h1.312v-.36H7.344zm2.531-.54-.375.18h-.656v.36h.844l.374-.36v-.36h-.187zm.375.54h1.5v-1.8h-1.5zM6.125 10.7h3.75V9.26h-3.75zM3.5 4.22v4.32l.375.36V3.86zm.75 4.68 1.5-.36V4.22l-1.5-.36zm6-4.68v4.32l1.5.36V3.86zm1.875 4.68.375-.36V4.22l-.375-.36z" clip-rule="evenodd"/></g><defs><linearGradient id="b" x1="8" x2="8" y1="3.5" y2="12.5" gradientUnits="userSpaceOnUse"><stop stop-color="#a57f33"/><stop offset="1" stop-color="#734f1a"/></linearGradient><linearGradient id="c" x1="8" x2="8" y1="3.5" y2="12.5" gradientUnits="userSpaceOnUse"><stop stop-color="#a57f33"/><stop offset="1" stop-color="#734f1a"/></linearGradient><linearGradient id="d" x1="8" x2="8" y1="3.5" y2="12.5" gradientUnits="userSpaceOnUse"><stop stop-color="#a57f33"/><stop offset="1" stop-color="#734f1a"/></linearGradient><linearGradient id="e" x1="8" x2="8" y1="3.5" y2="12.5" gradientUnits="userSpaceOnUse"><stop stop-color="#a57f33"/><stop offset="1" stop-color="#734f1a"/></linearGradient><linearGradient id="f" x1="8" x2="8" y1="3.5" y2="12.5" gradientUnits="userSpaceOnUse"><stop stop-color="#a57f33"/><stop offset="1" stop-color="#734f1a"/></linearGradient><linearGradient id="g" x1="8" x2="8" y1="3.5" y2="12.5" gradientUnits="userSpaceOnUse"><stop stop-color="#a57f33"/><stop offset="1" stop-color="#734f1a"/></linearGradient><linearGradient id="h" x1="8" x2="8" y1="3.5" y2="12.5" gradientUnits="userSpaceOnUse"><stop stop-color="#a57f33"/><stop offset="1" stop-color="#734f1a"/></linearGradient><linearGradient id="i" x1="8" x2="8" y1="3.5" y2="12.5" gradientUnits="userSpaceOnUse"><stop stop-color="#a57f33"/><stop offset="1" stop-color="#734f1a"/></linearGradient><filter id="a" width="12" height="9" x="2" y="3.5" color-interpolation-filters="sRGB" filterUnits="userSpaceOnUse"><feFlood flood-opacity="0" result="BackgroundImageFix"/><feBlend in="SourceGraphic" in2="BackgroundImageFix" result="shape"/><feColorMatrix in="SourceAlpha" result="hardAlpha" values="0 0 0 0 0 0 0 0 0 0 0 0 0 0 0 0 0 0 127 0"/><feOffset dy=".15"/><feComposite in2="hardAlpha" k2="-1" k3="1" operator="arithmetic"/><feColorMatrix values="0 0 0 0 1 0 0 0 0 1 0 0 0 0 1 0 0 0 1 0"/><feBlend in2="shape" mode="overlay" result="effect1_innerShadow_236_905"/></filter></defs></svg>