<svg xmlns="http://www.w3.org/2000/svg" width="8" height="8" fill="none" viewBox="0 0 8 8"><path fill="#222225" d="M5.191 5.241 3.671 8H7a1 1 0 0 0 .994-.893h-2.33a.44.44 0 0 1-.452-.428V5.24zM1 0a1 1 0 0 0-1 1v6a1 1 0 0 0 1 1h1.68a.4.4 0 0 1 .042-.125L4.403 4.82l-.576-.98-.553.637a.46.46 0 0 1-.35.155H1.453A.44.44 0 0 1 1 4.204a.44.44 0 0 1 .452-.428h1.26l.84-.963a.46.46 0 0 1 .348-.157h2.407a.46.46 0 0 1 .373.187l.81 1.119a.415.415 0 0 1-.119.596.47.47 0 0 1-.628-.113l-.675-.932h-.634l.626 1.074a.4.4 0 0 1 .056.206v1.458H8V1a1 1 0 0 0-1-1zm2.907 1c.416 0 .754.32.754.714s-.338.713-.754.713-.752-.32-.753-.713c0-.394.337-.714.753-.714"/></svg>