<svg width="10" height="10" viewBox="0 0 10 10" fill="none" xmlns="http://www.w3.org/2000/svg">
<path d="M9.85318 6.34738L9.83115 6.33561L9.32705 6.05672C9.32461 6.05554 9.32705 6.05437 9.32461 6.05319C8.94653 5.84255 8.69448 5.45069 8.69448 5.00118V5C8.69448 4.55048 8.94653 4.15745 9.32461 3.94799L9.33195 3.94446L9.8336 3.66557L9.8544 3.65262C9.94005 3.60085 9.99755 3.50788 9.99755 3.40198C9.99755 3.35255 9.98409 3.30548 9.96207 3.26312L9.94984 3.24312L9.03952 1.72629C8.98568 1.64156 8.8878 1.5839 8.77646 1.5839C8.73119 1.5839 8.68714 1.59332 8.64799 1.61097L8.59782 1.63803L8.14878 1.8875C8.12309 1.9028 8.09862 1.91692 8.0717 1.93104C7.89429 2.02165 7.6973 2.07343 7.48195 2.07343C6.78209 2.07343 6.22048 1.52977 6.22048 0.857849V0.29654C6.22048 0.132973 6.07366 0 5.90359 0H4.09152C3.92145 0 3.78808 0.132973 3.78808 0.29654V0.857849C3.78808 1.52859 3.22036 2.07343 2.52049 2.07343C2.30515 2.07343 2.10204 2.02165 1.92585 1.93104C1.89894 1.9181 1.87324 1.9028 1.84877 1.8875L1.39973 1.63803L1.34957 1.61097C1.31041 1.59332 1.26759 1.5839 1.22109 1.5839C1.10975 1.5839 1.01187 1.64156 0.958033 1.72629L0.0477181 3.24312L0.0354827 3.26312C0.0122354 3.30431 0 3.35138 0 3.40198C0 3.50788 0.0575064 3.59967 0.143154 3.65262L0.166402 3.66557L0.6705 3.94446C0.672948 3.94563 0.676618 3.94681 0.679065 3.94799C1.05714 4.15863 1.31531 4.55048 1.31531 5V5.00118C1.31531 5.45069 1.05714 5.84255 0.679065 6.05319C0.676618 6.05437 0.670501 6.05554 0.668053 6.05672L0.165178 6.33561L0.143154 6.34738C0.0575064 6.39915 0 6.49212 0 6.59802C0 6.64745 0.013459 6.69452 0.0354827 6.73688L0.0477181 6.75688L0.958033 8.27371C1.01187 8.35961 1.10975 8.4161 1.22109 8.4161C1.26636 8.4161 1.31041 8.40668 1.34957 8.38903L1.39973 8.36079L1.84999 8.11132C1.87569 8.09602 1.90138 8.0819 1.9283 8.06778C2.10571 7.97717 2.3076 7.92539 2.52294 7.92539C3.22281 7.92539 3.79053 8.46905 3.79053 9.14097V9.70228C3.79053 9.86585 3.9239 10 4.09397 10H5.90603C6.0761 10 6.22293 9.86585 6.22293 9.70228V9.14097C6.22293 8.47023 6.78331 7.92539 7.4844 7.92539C7.69974 7.92539 7.89673 7.97717 8.07415 8.06778C8.10106 8.08072 8.12554 8.09602 8.15123 8.11132L8.60027 8.36079L8.65043 8.38903C8.68959 8.40668 8.73241 8.4161 8.77891 8.4161C8.89025 8.4161 8.98813 8.35961 9.04197 8.27371L9.95228 6.75688L9.96452 6.73688C9.98777 6.69569 10 6.64862 10 6.59802C9.99633 6.49212 9.93882 6.40033 9.85318 6.34738ZM4.99816 6.88162C3.91778 6.88162 3.04172 6.03907 3.04172 5C3.04172 3.96093 3.91778 3.11838 4.99816 3.11838C6.07855 3.11838 6.95461 3.96093 6.95461 5C6.95461 6.03907 6.07855 6.88162 4.99816 6.88162Z" fill="#52525B"/>
</svg>
