<svg xmlns="http://www.w3.org/2000/svg" width="40" height="20" fill="none" viewBox="0 0 40 20"><path fill="#0095e2" fill-rule="evenodd" d="M5.679 0c-.018 0-.803-.013-1.119.79-.003.008-.214.6.005.773 0 0-.002.142-.046.275 0 .007-.04.238-.015.312q.003.012-.01.039c-.017-.001-.14 0-.315.248-.14.217-.206.288-.295.288 0-.002-.02-.22-.146-.22h-.503s-.203.076-.54.28c-.087.13-.197.347-.443.582a.54.54 0 0 0-.127.312c-.077.023-.433-.064-.433.397 0 0 .011.809-.594 1.858v.43s0 .122-.15.329c0 .219-.016.556-.017.568 0 0-.164.193-.164.335s.067 2.203.057 2.613h.052v.095H.93v-.215h.056V8.298c.005.01.093.185.212.286.123.106.304.258.362.346h.242s.128.011.158.127l.009-.001-.001.005-.097.05h-.274c-.172.048-.168.116-.168.123l.004 1.112c.029.013.214.217.219.223l.006.227c-.07.027-.06.088-.06.088v.46c.09.13.063.548.063.548-.035.275-.122.36-.122.36v.156c.155.098-.098.447-.093.479.004.029-.019.357-.02.365a.35.35 0 0 1 .054.158c-.001.22.024.319.099.433.074.114.181.375.181.375-.328.655-.317.805-.33.86-.015.053-.093.153-.244.272-.152.119-.158.34-.158.34-.083.454-.203.429-.203.429l-.05-.05v-1.382H.717v-.044H.502v.044h-.06s-.008 1.39 0 1.468c.008.075-.142.053-.151.051v.341c-.13.074-.12.192-.106.345.015.153.16.18.16.18v.856H.179v.56s.049.038.05.094c.002.055-.05.096-.05.096v.731c.047 0 .05.046.05.046v.231c-.008.058-.05.047-.05.047v.155H.123v-.043c-.127 0-.123.151-.123.155h2.263l-.109-.38c-.148-.28-.506-.351-.506-.351-.137-.167-.09-.288-.09-.288.178-.28.591-.36.591-.36.296-.254.454-.93.454-.93a3.2 3.2 0 0 1 .532-1.403c.07-.096.364-.388.364-.388.008-.009.517-.58.516-1.247 0-.666.287-1.489.293-1.504.277.306.271.444.271.45.016.264.325.398.337.403.24.527.585.515.601.514.045.139-.095.582-.095.582.02.075.034.07.139.21.104.14.093.258.093.258-.192.859-.32 2.37-.32 2.37.244.21.263.36.264.368-.016.447.031.476.031.476.003.005.032.05.14.193.112.149.204.023.207.019.047.686-.09 1.008-.09 1.008H9.14c-.04-.466-.57-.647-.579-.65-.123-.012-.235.099-.239.102l-.162.003c-.03-.177-.21-.157-.22-.155.006-.19-.154-.152-.164-.15.025-.18-.162-.121-.162-.121.01-.174-.157-.147-.167-.145-.088-.207-.022-.247-.022-.247.208-.187.22-.416.22-.416.09-.108.077-.177.077-.18-.116-.473-.177-1.928-.178-1.95-.092-.201.108-.396.115-.403.241-.716.224-1.612.223-1.632a.44.44 0 0 1-.106-.241c0-.009.02-.143-.061-.187-.083-.045-.247.088-.254.093-.563-1.475-.659-1.865-.661-1.875 0 0-.05-.486-.162-.546-.113-.06-.206-.408-.206-.408-.06-.232-.462-.838-.462-.838.108-.189.082-.386.082-.386-.092-.29.226-.42.226-.42.01-.088.014-.142.014-.142s.362.102.533-.392c.013.203.096.48.144-.122.04-.373.205-.766.32-1.145.055-.223.076-.52-.62-.48a1.2 1.2 0 0 1 .148-.434 1 1 0 0 0 .126-.254l.086.076c.631.39.856.487.86.489 0 0 .273.13.445.114.17-.016.706-.827.716-.842.495-.77.593-.797.647-.833s.068-.339.069-.343c0 0 .012-.13.154-.256.137-.124.108-.397.106-.411.052-.029.232-.536.232-.536h1.731v-.042h.056v-.054h-.103v-.108h.103v-.27h.112l.118.117h3.099v-.117h.047v-.326h-.054v-.106h-3.092l-.118.104h-.112v-.16h-.163v-.052h.275V2.56H9.21v-.108h.108v-.169l-.158-.156v-.373l-1.745.005v.528h.266v.286h-.428c-.072.185-.368.149-.368.149q-.047.001-.092.002c.038-.075.07-.127.07-.127 0-.003.025-.163.145-.243 0 0 .164-.019.123-.173s-.116-.193-.135-.376c.011-.009.181-.13.572-.085.014-.003.31-.053.284-.222-.007-.006-.34-.3-.911-.57V.835s.156-.02-.027-.24L6.841.486C6.823.458 6.677.03 5.68 0m1.319 7.16c.141 0 .11.207.11.218 0 0-.077.004-.15 0-.018-.043-.052-.09-.097-.107-.06.129-.232.212-.237.214.09-.35.303-.326.374-.326m1.726-2.602v.156h-.056v.109h.11v.383c0 .013 0 .235-.637.482 0 0-.024-.049-.073-.233a1.1 1.1 0 0 0-.18-.37s.117-.052.253-.235l.122-.143h.07v-.154zm-6.978.272v.334c0 .147-.164.16-.164.16v-.21c.112-.329.164-.284.164-.284m6.978-.384H8.34v-.05h.217v-.054h.055v-.164h.113zm-1.309-.763c-.003.015-.102.4-.24.428-.045-.153-.205-.324-.274-.392a.14.14 0 0 1-.041-.036zm.816-1.236h.11v.064h-.276v-.114h.166zM24.794 9.916q.433 0 .75.24.128.101.356.34.23.226.294.327.19.277.19.657v1.109q0 .378-.19.654-.064.102-.294.33-.228.226-.355.327-.319.239-.751.238h-2.698v3.341h-.739V9.916zm-2.698 3.517h2.684a.43.43 0 0 0 .217-.05q.166-.089.356-.265.191-.19.267-.34a.6.6 0 0 0 .027-.215v-1.059q-.001-.163-.026-.214a1.6 1.6 0 0 0-.28-.353 1.8 1.8 0 0 0-.344-.277.45.45 0 0 0-.217-.038h-2.684z" clip-rule="evenodd"/><path fill="#0095e2" d="M30.234 16.697h.178l2.125-6.78h.777l-2.419 7.562h-1.144L27.32 9.916h.775zM39.022 10.622h-3.64v2.722h3.45v.707h-3.45v2.723h3.64v.705h-4.378V9.916h4.378z"/><path fill="#0095e2" fill-rule="evenodd" d="M22.42 1.093q.242 0 .426.133.07.05.184.164.116.113.153.17.108.164.108.359v.567a.63.63 0 0 1-.108.353 1.2 1.2 0 0 1-.159.17q-.114.114-.184.164a.7.7 0 0 1-.42.126h-1.273v1.575h-.522v-3.78zm-1.273 1.715h1.267q.076 0 .177-.083a1 1 0 0 0 .16-.17q.018-.025.018-.082v-.548a.2.2 0 0 0-.012-.069.43.43 0 0 0-.133-.165q-.115-.1-.18-.107h-1.297z" clip-rule="evenodd"/><path fill="#0095e2" d="M26.518 1.584h-1.82v1.154h1.72v.492h-1.72v1.153h1.82v.491h-2.342v-3.78h2.342zM29.35 2.744h.075v-1.65h.522v1.65h.076l1.47-1.65h.688l-1.718 1.89 1.724 1.89H31.5L30.023 3.23h-.076v1.644h-.522V3.23h-.076l-1.476 1.644h-.688l1.724-1.89-1.717-1.89h.687zM33.399 4.012l1.59-2.919h.617v3.781h-.514V1.988l-1.604 2.886h-.605v-3.78h.516zM38.326 3.154l1.025-2.06H40v3.78h-.51V1.87l-.999 2.028h-.343l-.987-2.028v3.005h-.514v-3.78h.66z"/></svg>