<svg xmlns="http://www.w3.org/2000/svg" width="40" height="20" fill="none" viewBox="0 0 40 20"><path fill="#9a8866" fill-rule="evenodd" d="M9.74 0c-.997.03-1.142.458-1.16.486-.018.03-.073.107-.075.109-.178.214-.034.239-.027.24l.001.093c-.577.273-.91.57-.91.57-.029.173.284.222.284.222.398-.047.566.08.572.085-.02.183-.093.222-.135.376-.04.152.117.172.122.173.12.08.145.238.146.243 0 0 .033.052.072.127q-.048 0-.095-.002c-.01 0-.298.032-.368-.15h-.429v-.285h.266V1.76l-1.743-.005v.373l-.16.156v.169h.11v.108H3.265v.163h.275v.053h-.164v.159h-.11l-.12-.104H.053v.106H0v.326h.048v.117h3.098l.12-.117h.11v.27h.104v.108h-.104v.054h.057v.042h1.73s.181.507.233.536c-.002.012-.032.287.106.41a.43.43 0 0 1 .153.257c0 .003.015.308.069.343s.151.062.647.833c0 0 .544.825.716.842.169.016.433-.109.444-.114 0 0 .222-.094.861-.489l.089-.077c.03.087.067.173.123.253.073.115.124.278.15.436-.697-.04-.677.257-.623.48.116.38.281.772.322 1.145.048.602.13.325.143.122.168.484.52.396.533.392l.015.14c.015.007.314.138.225.422 0 0-.026.197.082.386 0 0-.402.606-.462.838 0 0-.093.348-.206.408s-.162.546-.162.546c-.003.012-.099.405-.66 1.875 0 0-.169-.138-.254-.094-.081.044-.063.178-.062.188 0 0-.003.117-.105.24 0 .02-.018.916.223 1.633.012.012.205.204.113.404 0 .022-.062 1.477-.177 1.95 0 .003-.011.072.078.18 0 0 .011.228.22.415 0 0 .066.04-.022.247 0 0-.178-.034-.168.145-.008-.003-.185-.056-.16.122 0 0-.172-.048-.165.149 0 0-.19-.027-.22.155l-.162-.003s-.115-.114-.239-.102c0 0-.539.18-.58.65h3.252c-.001-.004-.135-.326-.088-1.008.006.008.096.127.206-.019.112-.146.14-.19.14-.193.003-.002.046-.041.03-.476.002-.008.022-.157.267-.368 0 0-.13-1.511-.322-2.37 0 0-.011-.118.093-.258.105-.14.119-.135.14-.21 0 0-.141-.443-.097-.582.006 0 .358.021.602-.514 0 0 .32-.134.337-.403 0-.007-.005-.144.272-.45.008.022.294.84.293 1.504 0 .672.516 1.247.516 1.247.01.01.295.294.364.388.07.095.427.616.532 1.403 0 0 .158.676.454.93.016.004.417.085.59.36.002.005.044.124-.09.288-.01.002-.36.074-.506.352l-.11.379h2.264c0-.004.004-.154-.123-.155v.043h-.055v-.155s-.042.011-.05-.047v-.231s.003-.046.05-.046v-.731s-.052-.041-.05-.096.05-.094.05-.094v-.56h-.167v-.856c.008-.002.146-.03.16-.18.016-.153.025-.271-.105-.345v-.34s-.16.025-.153-.052c.008-.078 0-1.468 0-1.468h-.06v-.044h-.213v.044h-.06v1.382l-.05.05s-.12.021-.202-.428c0 0-.005-.222-.157-.341-.151-.12-.23-.219-.243-.272-.014-.055-.004-.205-.332-.86 0 0 .106-.26.181-.375s.1-.213.099-.433c0-.006.01-.104.053-.158 0-.009-.024-.336-.019-.366s-.248-.38-.093-.478v-.157c-.003-.003-.087-.09-.122-.36 0 0-.026-.418.065-.547v-.46s.008-.062-.062-.088l.007-.227c.01-.011.192-.212.219-.223l.002-1.112c.001-.006.006-.075-.166-.124h-.274l-.097-.05v-.004l.007.001c.03-.113.151-.126.157-.127h.244c.058-.088.239-.24.362-.346.12-.102.209-.28.212-.286v1.79h.055v.216h.055v-.095h.05c-.01-.41.06-2.47.06-2.613-.001-.14-.162-.332-.165-.335 0-.011-.017-.35-.017-.568-.15-.207-.15-.33-.15-.33v-.429c-.606-1.05-.595-1.858-.595-1.858 0-.46-.354-.374-.432-.397a.54.54 0 0 0-.128-.312c-.246-.235-.355-.452-.442-.583a4 4 0 0 0-.54-.279h-.502c-.127 0-.148.22-.148.22-.09 0-.153-.072-.294-.288-.169-.24-.29-.249-.313-.248q-.016-.026-.014-.039c.026-.074-.012-.303-.013-.312a1 1 0 0 1-.046-.275c.217-.172.01-.757.005-.773C10.54-.022 9.74 0 9.74 0M8.424 7.16c.071-.001.282-.024.373.325-.01-.005-.176-.087-.236-.214-.045.016-.08.063-.098.107-.07.004-.143 0-.148 0-.002-.01-.033-.219.11-.219M7.087 4.706h.07l.122.143a.76.76 0 0 0 .252.235 1.1 1.1 0 0 0-.178.37 2 2 0 0 1-.073.233c-.639-.247-.637-.47-.637-.482v-.383h.109v-.109h-.056v-.156l.391-.005zm6.587.123s.052-.045.164.285v.209c-.006 0-.164-.016-.164-.16zM6.81 4.341h.055v.056h.217v.05h-.386v-.27h.114zm1.75-.658a.14.14 0 0 1-.04.036c-.069.068-.229.239-.274.392-.14-.027-.238-.415-.242-.428zM7.354 2.511h-.273v-.064h.108v-.05h.165zm17.285 7.405q.432 0 .75.24.128.101.356.34.228.226.293.327.191.277.192.657v1.109q0 .378-.192.654-.063.102-.293.33-.228.226-.356.327-.318.239-.75.238H21.94v3.341h-.738V9.916zm-2.699 3.517h2.685a.43.43 0 0 0 .216-.05q.166-.089.357-.265.19-.19.267-.34a.6.6 0 0 0 .026-.215v-1.059q0-.163-.026-.214a1.6 1.6 0 0 0-.28-.353 1.8 1.8 0 0 0-.344-.277.45.45 0 0 0-.216-.038H21.94z" clip-rule="evenodd"/><path fill="#9a8866" d="M30.079 16.697h.178l2.125-6.78h.777l-2.419 7.562h-1.145l-2.43-7.563h.775z"/><path fill="#9a8866" fill-rule="evenodd" d="M37.926 9.916q.432 0 .75.24.127.101.356.34.228.226.293.327.19.277.191.657v1.109q0 .378-.19.654-.065.102-.294.33-.229.226-.356.327-.318.239-.75.238h-2.699v3.341h-.738V9.916zm-2.699 3.517h2.685a.44.44 0 0 0 .216-.05q.166-.089.357-.265.19-.19.267-.34a.6.6 0 0 0 .026-.215v-1.059q0-.163-.026-.214a1.6 1.6 0 0 0-.28-.353 1.8 1.8 0 0 0-.344-.277.45.45 0 0 0-.216-.038h-2.685zM22.42 1.093q.242 0 .426.133.07.05.184.164.116.113.153.17a.64.64 0 0 1 .108.36v.567a.63.63 0 0 1-.108.352 1.2 1.2 0 0 1-.159.17q-.114.113-.184.164a.7.7 0 0 1-.42.126h-1.273v1.575h-.522v-3.78zm-1.273 1.715h1.267q.076 0 .177-.083a1 1 0 0 0 .16-.17q.018-.025.018-.082v-.548a.2.2 0 0 0-.012-.069.43.43 0 0 0-.133-.165q-.115-.1-.18-.107h-1.297z" clip-rule="evenodd"/><path fill="#9a8866" d="M26.52 1.584h-1.822v1.154h1.72v.492h-1.72v1.153h1.821v.491h-2.343v-3.78h2.343zm2.83 1.16h.075v-1.65h.522v1.65h.076l1.47-1.65h.688l-1.718 1.89 1.724 1.89H31.5L30.023 3.23h-.076v1.644h-.522V3.23h-.076l-1.476 1.644h-.688l1.724-1.89-1.717-1.89h.687zm4.049 1.268 1.59-2.919h.619v3.781h-.516V1.988l-1.604 2.886h-.605v-3.78h.516zm4.927-.858 1.025-2.06H40v3.78h-.51V1.87l-.999 2.028h-.343l-.987-2.028v3.005h-.514v-3.78h.66z"/></svg>