<svg xmlns="http://www.w3.org/2000/svg" width="24" height="12" fill="none" viewBox="0 0 24 12"><path fill="#9ca3af" d="M4.982 7.228q.195.245.3.311h1.103a1 1 0 0 0 .29-.304V3.533h.982v3.702a.9.9 0 0 1-.136.51q-.09.132-.275.328a1.7 1.7 0 0 1-.306.27q-.274.157-.532.157H5.257q-.274 0-.532-.156-.12-.075-.314-.27a4 4 0 0 1-.274-.329.9.9 0 0 1-.137-.51V3.533h.982zM10.67 3.5q.565 0 1.056.69.161.23.274.525l-.91.263a1.26 1.26 0 0 0-.428-.518H9.551a1.3 1.3 0 0 0-.258.23.2.2 0 0 0-.04.058v.435l.024.05 2.046.566q.314.09.492.361.176.27.177.591v.484a.94.94 0 0 1-.145.51 2.6 2.6 0 0 1-.274.327 2 2 0 0 1-.314.272q-.274.156-.532.156H9.494q-.579 0-1.062-.698a2 2 0 0 1-.275-.526l.91-.287q.234.427.42.55h1.224a1.1 1.1 0 0 0 .29-.28v-.484l-.024-.048q-.29-.083-.983-.272-.685-.188-1.056-.287a.85.85 0 0 1-.499-.361 1.1 1.1 0 0 1-.168-.591v-.451q0-.312.128-.518a3 3 0 0 1 .274-.312 2.2 2.2 0 0 1 .33-.279q.273-.156.523-.156zm7.992 0q.564 0 1.056.69.16.23.273.525l-.91.263a1.26 1.26 0 0 0-.427-.518h-1.006a1.2 1.2 0 0 0-.315.33v2.445q0 .009.032.058.04.05.114.123.08.074.169.123h1.022q.226-.156.411-.492l.918.23a2 2 0 0 1-.273.525q-.484.698-1.064.698h-1.055q-.273 0-.532-.156a1.8 1.8 0 0 1-.305-.263 4 4 0 0 1-.283-.328.95.95 0 0 1-.136-.51V4.756q0-.304.136-.509.089-.123.274-.32a1.7 1.7 0 0 1 .322-.27q.275-.157.524-.157zm-2.961.994H13.51v1.01h2.119v.96h-2.12v1.034h2.192v.961h-3.174V3.533h3.174z"/><path fill="#9ca3af" fill-rule="evenodd" d="M20 1a2.5 2.5 0 0 1 2.5 2.5v5A2.5 2.5 0 0 1 20 11H4a2.5 2.5 0 0 1-2.5-2.5v-5A2.5 2.5 0 0 1 4 1zM4 1.5a2 2 0 0 0-2 2v5l.01.204A2 2 0 0 0 4 10.5h16l.204-.01A2 2 0 0 0 22 8.5v-5a2 2 0 0 0-1.796-1.99L20 1.5z" clip-rule="evenodd"/></svg>