<svg xmlns="http://www.w3.org/2000/svg" width="26" height="43" fill="none" viewBox="0 0 26 43"><g filter="url(#a)"><path fill="url(#b)" d="M21.697 18.213v.002a.28.28 0 0 1 .215.09.3.3 0 0 1 .085.223v1.98a.6.6 0 0 1-.103.25.6.6 0 0 1-.197.18c-.41.262-8.588 5.421-8.622 5.443a.9.9 0 0 1-.318.119h-.012a.9.9 0 0 1-.318-.12c-.04-.025-8.212-5.18-8.623-5.441a.6.6 0 0 1-.196-.18.6.6 0 0 1-.104-.251v-1.979a.32.32 0 0 1 .086-.224.3.3 0 0 1 .155-.085.3.3 0 0 1 .06-.004h1.152l.06.004a.3.3 0 0 1 .158.084.3.3 0 0 1 .088.224v.894l7.488 4.689c.168-.105 6.784-4.247 7.487-4.69v-.895a.32.32 0 0 1 .09-.225.3.3 0 0 1 .217-.088z"/><path fill="url(#c)" d="m13.492 18.217.058.005a.3.3 0 0 1 .155.084.3.3 0 0 1 .085.223v4.124l-1.032.651v.008l-.006-.004-.007.003v-.007l-1.032-.65v-4.125a.32.32 0 0 1 .086-.223.3.3 0 0 1 .213-.09z"/><path fill="url(#d)" d="m16.278 18.216.06.004a.29.29 0 0 1 .22.187q.022.059.02.121v2.373l-1.646 1.033s-.043.027-.095.04a.2.2 0 0 1-.083.003c-.065-.012-.122-.072-.122-.242V18.53a.32.32 0 0 1 .087-.222.29.29 0 0 1 .213-.09z"/><path fill="url(#e)" d="M9.224 18.216h1.345l.06.006a.3.3 0 0 1 .154.084.3.3 0 0 1 .087.222v3.205c0 .17-.057.23-.122.243a.2.2 0 0 1-.083-.004.4.4 0 0 1-.095-.04L8.924 20.9v-2.373a.32.32 0 0 1 .085-.224.3.3 0 0 1 .156-.084.3.3 0 0 1 .059-.004z"/><path fill="url(#f)" d="m7.764 18.215.054.009a.26.26 0 0 1 .136.09.28.28 0 0 1 .056.214v.978l.003.578c0 .006-.007.237-.242.094l-1.706-1.085v-.564a.32.32 0 0 1 .085-.224.3.3 0 0 1 .214-.09z"/><path fill="url(#g)" d="m19.138 18.215.06.005a.3.3 0 0 1 .154.085.3.3 0 0 1 .086.224v.564l-1.706 1.085a.3.3 0 0 1-.111.045.1.1 0 0 1-.051-.003c-.078-.023-.08-.137-.08-.137l.004-.578v-.976a.28.28 0 0 1 .055-.214.26.26 0 0 1 .19-.1z"/><path fill="url(#h)" d="m21.178 10.957.821.861v.778a.3.3 0 0 1-.08.22.3.3 0 0 1-.208.093h-.843a.28.28 0 0 1-.216-.087.3.3 0 0 1-.084-.226v-.137h-1.42v3.38h1.42v-.29a.32.32 0 0 1 .086-.223.3.3 0 0 1 .214-.09h.841l.002-.001.058.004a.26.26 0 0 1 .154.087.3.3 0 0 1 .076.225v.886l-.822.904h-2.7l-.756-.904v-4.619l.755-.861z"/><path fill="url(#i)" d="m4.634 10.956.059.005q.029.005.056.017a.3.3 0 0 1 .165.169q.023.058.022.121v4.57h1.437v-4.57a.32.32 0 0 1 .088-.222.3.3 0 0 1 .213-.09h.84l.06.004a.28.28 0 0 1 .155.085.3.3 0 0 1 .086.223v5.168l-.83.904H4.309l-.805-.904v-5.168a.32.32 0 0 1 .081-.22.3.3 0 0 1 .207-.092z"/><path fill="url(#j)" d="m11.653 10.956.862.861v.778a.32.32 0 0 1-.088.221.3.3 0 0 1-.213.092h-.84a.27.27 0 0 1-.219-.086.3.3 0 0 1-.082-.227v-.138H9.667v.839h1.986l.862.912v2.228l-.862.904h-2.54l-.886-.904v-.886a.3.3 0 0 1 .083-.227.28.28 0 0 1 .217-.087h.841v-.001a.3.3 0 0 1 .212.095.32.32 0 0 1 .087.222v.289h1.406V14.8h-1.96l-.886-.925v-2.059l.886-.861z"/><path fill="url(#k)" d="m16.987 10.956.058.005a.3.3 0 0 1 .154.085.3.3 0 0 1 .088.222v.877a.32.32 0 0 1-.086.223.28.28 0 0 1-.214.09v-.002h-2.56v.838h1.298l.058.006a.3.3 0 0 1 .155.085.3.3 0 0 1 .088.222v.876a.32.32 0 0 1-.088.222.3.3 0 0 1-.213.091h-1.298v1.04h2.56l.059.006a.3.3 0 0 1 .154.085.3.3 0 0 1 .087.222v.877a.32.32 0 0 1-.087.223.28.28 0 0 1-.214.09h-3.7a.28.28 0 0 1-.216-.087.3.3 0 0 1-.085-.226v-5.758a.32.32 0 0 1 .088-.223.3.3 0 0 1 .213-.09z"/><path fill="url(#l)" fill-rule="evenodd" d="M8.418 2.5a.3.3 0 0 1 .214.091.3.3 0 0 1 .086.224v1.434a.25.25 0 0 1-.083.21l-.872.676V7.85c.01.062.042.117.09.155 1.33.858 1.505.975 1.528.991l.285-.363.425-4.385a.25.25 0 0 1 .1-.173l1.483-.92a.46.46 0 0 1 .324 0l2.473.52a.86.86 0 0 1 .369.27c.188.192 1.087 1.083 1.087 1.083a.82.82 0 0 1 .214.53v.587a.4.4 0 0 1-.085.155 5 5 0 0 1-.49.513 1.36 1.36 0 0 0-.516-.81.64.64 0 0 0-.69.147c.239.263.527.471.847.613a.37.37 0 0 1 .235-.01q.03.074.03.155l-.665.617-.52-.487.004.639L16.118 9c0 .001.018-.019 1.53-.994a.25.25 0 0 0 .09-.155V5.136l-.873-.676a.25.25 0 0 1-.083-.21V2.816a.32.32 0 0 1 .087-.224.3.3 0 0 1 .214-.091h3.83a.4.4 0 0 1 .233.103c.107.091.19.156.258.214.16.135.235.202.32.28a.7.7 0 0 1 .273.354v6.222l-.002.004v.09a.3.3 0 0 1-.084.226.27.27 0 0 1-.217.085h-1.201a.3.3 0 0 1-.213-.09.3.3 0 0 1-.088-.22v-4.73a.46.46 0 0 0-.092-.263 11 11 0 0 0-.376-.366l-.288-.27v5.626a.32.32 0 0 1-.086.222.3.3 0 0 1-.214.089H17.79a.28.28 0 0 1-.212-.09.3.3 0 0 1-.086-.221V9.51l-.738.489a.7.7 0 0 1-.277.078h-1.655a.3.3 0 0 1-.212-.09.3.3 0 0 1-.089-.221v-.47l-.796-.63v1.097a.32.32 0 0 1-.087.222.3.3 0 0 1-.213.09h-1.418a.3.3 0 0 1-.21-.092.3.3 0 0 1-.088-.22V7.415l-.75.533a.4.4 0 0 0-.074.19v1.625a.32.32 0 0 1-.086.221.3.3 0 0 1-.212.09h-1.57a.7.7 0 0 1-.278-.078L8 9.507c0 .001.004.073.004.256a.32.32 0 0 1-.087.221.3.3 0 0 1-.212.09H6.359a.28.28 0 0 1-.214-.088.3.3 0 0 1-.086-.223V4.135c-.008.008-.545.508-.664.636a.46.46 0 0 0-.092.263v4.729a.32.32 0 0 1-.088.22.3.3 0 0 1-.213.09H3.8a.29.29 0 0 1-.28-.19.3.3 0 0 1-.02-.12V3.45a.7.7 0 0 1 .277-.355 9 9 0 0 1 .32-.28c.067-.057.15-.122.258-.213a.4.4 0 0 1 .232-.103zm5.477 2.54.26-.24-.282-.27-.543-.026z" clip-rule="evenodd"/></g><g filter="url(#m)"><g filter="url(#n)"><path fill="url(#o)" d="M7.136 35.482q.155.196.239.25h.882a.8.8 0 0 0 .232-.244v-2.961h.786v2.961a.7.7 0 0 1-.109.408q-.07.104-.22.263a1.3 1.3 0 0 1-.244.216.86.86 0 0 1-.426.125h-.92a.8.8 0 0 1-.427-.125 1.5 1.5 0 0 1-.25-.216 3 3 0 0 1-.22-.263.7.7 0 0 1-.11-.408v-2.961h.787z"/><path fill="url(#p)" d="M11.686 32.5q.45 0 .844.552.13.183.22.42l-.729.21a1 1 0 0 0-.342-.414h-.889a1 1 0 0 0-.206.184.2.2 0 0 0-.032.046v.348l.02.04 1.636.453a.68.68 0 0 1 .393.29.85.85 0 0 1 .142.472v.387q0 .224-.116.407a2.1 2.1 0 0 1-.47.48.86.86 0 0 1-.426.125h-.986q-.464 0-.85-.559a1.6 1.6 0 0 1-.22-.42l.728-.23q.187.342.336.44h.98a.9.9 0 0 0 .232-.223v-.388l-.02-.039-.786-.217-.845-.23a.68.68 0 0 1-.399-.289.9.9 0 0 1-.135-.472v-.361q0-.25.103-.414a2 2 0 0 1 .219-.25q.16-.158.264-.223a.85.85 0 0 1 .419-.125z"/><path fill="url(#q)" d="M18.08 32.5q.45 0 .844.552.129.183.219.42l-.729.21a1 1 0 0 0-.341-.414h-.805a1 1 0 0 0-.252.263v1.957q0 .007.026.046.032.04.09.099.064.06.136.098h.817q.18-.124.33-.394l.734.184a1.6 1.6 0 0 1-.219.42q-.387.56-.85.559h-.844a.8.8 0 0 1-.426-.125 1.4 1.4 0 0 1-.245-.21 3 3 0 0 1-.226-.263.76.76 0 0 1-.109-.407v-1.99q0-.243.11-.407.07-.1.218-.257.155-.157.258-.216a.85.85 0 0 1 .42-.125z"/><path fill="url(#r)" d="M15.71 33.295h-1.753v.808h1.696v.768h-1.696v.827h1.753v.77h-2.539v-3.941h2.54z"/><path fill="url(#s)" fill-rule="evenodd" d="M19.15 30.5a2 2 0 0 1 2 2v4a2 2 0 0 1-2 2H6.35a2 2 0 0 1-2-2v-4a2 2 0 0 1 2-2zm-12.8.4a1.6 1.6 0 0 0-1.6 1.6v4l.008.163A1.6 1.6 0 0 0 6.35 38.1h12.8l.163-.009A1.6 1.6 0 0 0 20.75 36.5v-4a1.6 1.6 0 0 0-1.437-1.591l-.163-.009z" clip-rule="evenodd"/></g></g><defs><linearGradient id="b" x1="23.111" x2="9.492" y1="26.5" y2="3.687" gradientUnits="userSpaceOnUse"><stop stop-color="#6b6b6b"/><stop offset=".481" stop-color="#dfdfdf"/><stop offset=".656" stop-color="#727272"/><stop offset=".854" stop-color="#dadada"/><stop offset="1" stop-color="#9e9e9e"/></linearGradient><linearGradient id="c" x1="23.111" x2="9.492" y1="26.5" y2="3.687" gradientUnits="userSpaceOnUse"><stop stop-color="#6b6b6b"/><stop offset=".481" stop-color="#dfdfdf"/><stop offset=".656" stop-color="#727272"/><stop offset=".854" stop-color="#dadada"/><stop offset="1" stop-color="#9e9e9e"/></linearGradient><linearGradient id="d" x1="23.111" x2="9.492" y1="26.5" y2="3.687" gradientUnits="userSpaceOnUse"><stop stop-color="#6b6b6b"/><stop offset=".481" stop-color="#dfdfdf"/><stop offset=".656" stop-color="#727272"/><stop offset=".854" stop-color="#dadada"/><stop offset="1" stop-color="#9e9e9e"/></linearGradient><linearGradient id="e" x1="23.111" x2="9.492" y1="26.5" y2="3.687" gradientUnits="userSpaceOnUse"><stop stop-color="#6b6b6b"/><stop offset=".481" stop-color="#dfdfdf"/><stop offset=".656" stop-color="#727272"/><stop offset=".854" stop-color="#dadada"/><stop offset="1" stop-color="#9e9e9e"/></linearGradient><linearGradient id="f" x1="23.111" x2="9.492" y1="26.5" y2="3.687" gradientUnits="userSpaceOnUse"><stop stop-color="#6b6b6b"/><stop offset=".481" stop-color="#dfdfdf"/><stop offset=".656" stop-color="#727272"/><stop offset=".854" stop-color="#dadada"/><stop offset="1" stop-color="#9e9e9e"/></linearGradient><linearGradient id="g" x1="23.111" x2="9.492" y1="26.5" y2="3.687" gradientUnits="userSpaceOnUse"><stop stop-color="#6b6b6b"/><stop offset=".481" stop-color="#dfdfdf"/><stop offset=".656" stop-color="#727272"/><stop offset=".854" stop-color="#dadada"/><stop offset="1" stop-color="#9e9e9e"/></linearGradient><linearGradient id="h" x1="23.111" x2="9.492" y1="26.5" y2="3.687" gradientUnits="userSpaceOnUse"><stop stop-color="#6b6b6b"/><stop offset=".481" stop-color="#dfdfdf"/><stop offset=".656" stop-color="#727272"/><stop offset=".854" stop-color="#dadada"/><stop offset="1" stop-color="#9e9e9e"/></linearGradient><linearGradient id="i" x1="23.111" x2="9.492" y1="26.5" y2="3.687" gradientUnits="userSpaceOnUse"><stop stop-color="#6b6b6b"/><stop offset=".481" stop-color="#dfdfdf"/><stop offset=".656" stop-color="#727272"/><stop offset=".854" stop-color="#dadada"/><stop offset="1" stop-color="#9e9e9e"/></linearGradient><linearGradient id="j" x1="23.111" x2="9.492" y1="26.5" y2="3.687" gradientUnits="userSpaceOnUse"><stop stop-color="#6b6b6b"/><stop offset=".481" stop-color="#dfdfdf"/><stop offset=".656" stop-color="#727272"/><stop offset=".854" stop-color="#dadada"/><stop offset="1" stop-color="#9e9e9e"/></linearGradient><linearGradient id="k" x1="23.111" x2="9.492" y1="26.5" y2="3.687" gradientUnits="userSpaceOnUse"><stop stop-color="#6b6b6b"/><stop offset=".481" stop-color="#dfdfdf"/><stop offset=".656" stop-color="#727272"/><stop offset=".854" stop-color="#dadada"/><stop offset="1" stop-color="#9e9e9e"/></linearGradient><linearGradient id="l" x1="23.111" x2="9.492" y1="26.5" y2="3.687" gradientUnits="userSpaceOnUse"><stop stop-color="#6b6b6b"/><stop offset=".481" stop-color="#dfdfdf"/><stop offset=".656" stop-color="#727272"/><stop offset=".854" stop-color="#dadada"/><stop offset="1" stop-color="#9e9e9e"/></linearGradient><linearGradient id="o" x1="22.159" x2="20.002" y1="38.5" y2="28.658" gradientUnits="userSpaceOnUse"><stop stop-color="#6b6b6b"/><stop offset=".481" stop-color="#dfdfdf"/><stop offset=".656" stop-color="#727272"/><stop offset=".854" stop-color="#dadada"/><stop offset="1" stop-color="#9e9e9e"/></linearGradient><linearGradient id="p" x1="22.159" x2="20.002" y1="38.5" y2="28.658" gradientUnits="userSpaceOnUse"><stop stop-color="#6b6b6b"/><stop offset=".481" stop-color="#dfdfdf"/><stop offset=".656" stop-color="#727272"/><stop offset=".854" stop-color="#dadada"/><stop offset="1" stop-color="#9e9e9e"/></linearGradient><linearGradient id="q" x1="22.159" x2="20.002" y1="38.5" y2="28.658" gradientUnits="userSpaceOnUse"><stop stop-color="#6b6b6b"/><stop offset=".481" stop-color="#dfdfdf"/><stop offset=".656" stop-color="#727272"/><stop offset=".854" stop-color="#dadada"/><stop offset="1" stop-color="#9e9e9e"/></linearGradient><linearGradient id="r" x1="22.159" x2="20.002" y1="38.5" y2="28.658" gradientUnits="userSpaceOnUse"><stop stop-color="#6b6b6b"/><stop offset=".481" stop-color="#dfdfdf"/><stop offset=".656" stop-color="#727272"/><stop offset=".854" stop-color="#dadada"/><stop offset="1" stop-color="#9e9e9e"/></linearGradient><linearGradient id="s" x1="22.159" x2="20.002" y1="38.5" y2="28.658" gradientUnits="userSpaceOnUse"><stop stop-color="#6b6b6b"/><stop offset=".481" stop-color="#dfdfdf"/><stop offset=".656" stop-color="#727272"/><stop offset=".854" stop-color="#dadada"/><stop offset="1" stop-color="#9e9e9e"/></linearGradient><filter id="a" width="25.5" height="31" x="0" y="0" color-interpolation-filters="sRGB" filterUnits="userSpaceOnUse"><feFlood flood-opacity="0" result="BackgroundImageFix"/><feColorMatrix in="SourceAlpha" result="hardAlpha" values="0 0 0 0 0 0 0 0 0 0 0 0 0 0 0 0 0 0 127 0"/><feOffset dy=".081"/><feGaussianBlur stdDeviation=".143"/><feColorMatrix values="0 0 0 0 0 0 0 0 0 0 0 0 0 0 0 0 0 0 0.219852 0"/><feBlend in2="BackgroundImageFix" result="effect1_dropShadow_342_1971"/><feColorMatrix in="SourceAlpha" result="hardAlpha" values="0 0 0 0 0 0 0 0 0 0 0 0 0 0 0 0 0 0 127 0"/><feOffset dy=".081"/><feGaussianBlur stdDeviation=".143"/><feColorMatrix values="0 0 0 0 0 0 0 0 0 0 0 0 0 0 0 0 0 0 0.219852 0"/><feBlend in2="effect1_dropShadow_342_1971" result="effect2_dropShadow_342_1971"/><feColorMatrix in="SourceAlpha" result="hardAlpha" values="0 0 0 0 0 0 0 0 0 0 0 0 0 0 0 0 0 0 127 0"/><feOffset dy=".385"/><feGaussianBlur stdDeviation=".557"/><feColorMatrix values="0 0 0 0 0 0 0 0 0 0 0 0 0 0 0 0 0 0 0.340148 0"/><feBlend in2="effect2_dropShadow_342_1971" result="effect3_dropShadow_342_1971"/><feColorMatrix in="SourceAlpha" result="hardAlpha" values="0 0 0 0 0 0 0 0 0 0 0 0 0 0 0 0 0 0 127 0"/><feOffset dy=".385"/><feGaussianBlur stdDeviation=".557"/><feColorMatrix values="0 0 0 0 0 0 0 0 0 0 0 0 0 0 0 0 0 0 0.340148 0"/><feBlend in2="effect3_dropShadow_342_1971" result="effect4_dropShadow_342_1971"/><feColorMatrix in="SourceAlpha" result="hardAlpha" values="0 0 0 0 0 0 0 0 0 0 0 0 0 0 0 0 0 0 127 0"/><feOffset dy="1"/><feGaussianBlur stdDeviation="1.75"/><feColorMatrix values="0 0 0 0 0 0 0 0 0 0 0 0 0 0 0 0 0 0 0.56 0"/><feBlend in2="effect4_dropShadow_342_1971" result="effect5_dropShadow_342_1971"/><feColorMatrix in="SourceAlpha" result="hardAlpha" values="0 0 0 0 0 0 0 0 0 0 0 0 0 0 0 0 0 0 127 0"/><feOffset dy="1"/><feGaussianBlur stdDeviation="1.75"/><feColorMatrix values="0 0 0 0 0 0 0 0 0 0 0 0 0 0 0 0 0 0 0.56 0"/><feBlend in2="effect5_dropShadow_342_1971" result="effect6_dropShadow_342_1971"/><feBlend in="SourceGraphic" in2="effect6_dropShadow_342_1971" result="shape"/></filter><filter id="m" width="31" height="19" x="-2.75" y="26" color-interpolation-filters="sRGB" filterUnits="userSpaceOnUse"><feFlood flood-opacity="0" result="BackgroundImageFix"/><feColorMatrix in="SourceAlpha" result="hardAlpha" values="0 0 0 0 0 0 0 0 0 0 0 0 0 0 0 0 0 0 127 0"/><feOffset dy=".081"/><feGaussianBlur stdDeviation=".143"/><feColorMatrix values="0 0 0 0 0 0 0 0 0 0 0 0 0 0 0 0 0 0 0.219852 0"/><feBlend in2="BackgroundImageFix" result="effect1_dropShadow_342_1971"/><feColorMatrix in="SourceAlpha" result="hardAlpha" values="0 0 0 0 0 0 0 0 0 0 0 0 0 0 0 0 0 0 127 0"/><feOffset dy=".385"/><feGaussianBlur stdDeviation=".557"/><feColorMatrix values="0 0 0 0 0 0 0 0 0 0 0 0 0 0 0 0 0 0 0.340148 0"/><feBlend in2="effect1_dropShadow_342_1971" result="effect2_dropShadow_342_1971"/><feColorMatrix in="SourceAlpha" result="hardAlpha" values="0 0 0 0 0 0 0 0 0 0 0 0 0 0 0 0 0 0 127 0"/><feOffset dy="1"/><feGaussianBlur stdDeviation="1.75"/><feColorMatrix values="0 0 0 0 0 0 0 0 0 0 0 0 0 0 0 0 0 0 0.56 0"/><feBlend in2="effect2_dropShadow_342_1971" result="effect3_dropShadow_342_1971"/><feBlend in="SourceGraphic" in2="effect3_dropShadow_342_1971" result="shape"/></filter><filter id="n" width="22.4" height="13.6" x="1.55" y="28.5" color-interpolation-filters="sRGB" filterUnits="userSpaceOnUse"><feFlood flood-opacity="0" result="BackgroundImageFix"/><feColorMatrix in="SourceAlpha" result="hardAlpha" values="0 0 0 0 0 0 0 0 0 0 0 0 0 0 0 0 0 0 127 0"/><feOffset dy=".065"/><feGaussianBlur stdDeviation=".114"/><feColorMatrix values="0 0 0 0 0 0 0 0 0 0 0 0 0 0 0 0 0 0 0.219852 0"/><feBlend in2="BackgroundImageFix" result="effect1_dropShadow_342_1971"/><feColorMatrix in="SourceAlpha" result="hardAlpha" values="0 0 0 0 0 0 0 0 0 0 0 0 0 0 0 0 0 0 127 0"/><feOffset dy=".308"/><feGaussianBlur stdDeviation=".446"/><feColorMatrix values="0 0 0 0 0 0 0 0 0 0 0 0 0 0 0 0 0 0 0.340148 0"/><feBlend in2="effect1_dropShadow_342_1971" result="effect2_dropShadow_342_1971"/><feColorMatrix in="SourceAlpha" result="hardAlpha" values="0 0 0 0 0 0 0 0 0 0 0 0 0 0 0 0 0 0 127 0"/><feOffset dy=".8"/><feGaussianBlur stdDeviation="1.4"/><feColorMatrix values="0 0 0 0 0 0 0 0 0 0 0 0 0 0 0 0 0 0 0.56 0"/><feBlend in2="effect2_dropShadow_342_1971" result="effect3_dropShadow_342_1971"/><feBlend in="SourceGraphic" in2="effect3_dropShadow_342_1971" result="shape"/></filter></defs></svg>